<?xml version="1.0" encoding="utf-8"?>
<!-- Generator: Adobe Illustrator 21.1.0, SVG Export Plug-In . SVG Version: 6.00 Build 0)  -->
<svg version="1.1" id="圖層_1" xmlns="http://www.w3.org/2000/svg" xmlns:xlink="http://www.w3.org/1999/xlink" x="0px" y="0px"
	 viewBox="0 0 500 300" style="enable-background:new 0 0 500 300;" xml:space="preserve">
<style type="text/css">
	.st0{fill:#DE2910;}
	.st1{fill:#FFDE00;}
</style>
<rect class="st0" width="500" height="300"/>
<polygon class="st1" points="101.5,89.2 130.9,67.9 94.6,67.9 83.3,33.3 72.1,67.9 35.8,67.9 65.2,89.2 53.9,123.8 83.3,102.4 
	112.7,123.8 "/>
<g>
	<polygon class="st1" points="164.2,39.2 170.4,49.6 171.5,37.5 183.3,34.8 172.1,30.1 173.2,18 165.2,27.1 154.1,22.4 160.3,32.8 
		152.4,41.9 	"/>
	<polygon class="st1" points="195.4,71.1 197.1,83.1 202.8,72.4 214.7,74.5 206.3,65.8 212,55.1 201.1,60.4 192.7,51.7 194.4,63.7 
		183.5,69 	"/>
	<polygon class="st1" points="206.1,118.4 215.7,111 203.6,111.4 199.4,100 196.1,111.7 184,112.1 194,118.8 190.7,130.5 200.2,123 
		210.3,129.8 	"/>
	<polygon class="st1" points="172,146.5 172.5,134.4 165,143.9 153.7,139.6 160.3,149.7 152.7,159.2 164.4,156 171.1,166.1 
		171.6,154 183.3,150.8 	"/>
</g>
</svg>
