<?xml version="1.0" encoding="utf-8"?>
<!-- Generator: Adobe Illustrator 21.1.0, SVG Export Plug-In . SVG Version: 6.00 Build 0)  -->
<svg version="1.1" id="圖層_1" xmlns="http://www.w3.org/2000/svg" xmlns:xlink="http://www.w3.org/1999/xlink" x="0px" y="0px"
	 viewBox="0 0 500 300" style="enable-background:new 0 0 500 300;" xml:space="preserve">
<style type="text/css">
	.st0{fill:#FFFFFF;}
	.st1{fill:#CC0001;}
	.st2{fill:#010066;}
	.st3{fill:#FFCC00;}
</style>
<rect transform="matrix(-1 -1.224647e-16 1.224647e-16 -1 500 301.3214)" class="st0" width="500" height="301.3"/>
<g>
	<rect y="231.8" class="st1" width="500" height="23.2"/>
	<rect y="185.4" class="st1" width="500" height="23.2"/>
	<rect y="278.1" class="st1" width="500" height="23.2"/>
	<rect y="46.4" class="st1" width="500" height="23.2"/>
	<rect class="st1" width="500" height="23.2"/>
	<rect y="139.1" class="st1" width="500" height="23.2"/>
	<rect y="92.7" class="st1" width="500" height="23.2"/>
</g>
<rect id="blue" class="st2" width="324.5" height="185.4"/>
<path id="path4945" class="st3" d="M133.5,23.2c-38.5,0-69.8,31.2-69.8,69.5s31.3,69.5,69.8,69.5c13.9,0,26.9-4.1,37.8-11.1
	c-6.3,2.2-13.1,3.4-20.2,3.4c-34.1,0-61.9-27.6-61.9-61.7s27.7-61.7,61.9-61.7c7.5,0,14.8,1.3,21.5,3.8
	C161.4,27.6,147.9,23.2,133.5,23.2z"/>
<path id="path4959" class="st3" d="M249.2,128.9l-29.4-15.3l8.7,31.4l-19.7-26.3l-6.1,32l-6-32L177,144.9l8.8-31.4l-29.4,15.2
	l21.9-24.5l-33.3,1.3l30.6-12.8l-30.6-12.9l33.3,1.4l-21.8-24.6l29.4,15.3l-8.7-31.4l19.7,26.3l6.1-32l6,32l19.7-26.2l-8.8,31.4
	l29.4-15.2l-21.9,24.5l33.3-1.3l-30.6,12.8l30.6,12.9l-33.3-1.4L249.2,128.9z"/>
</svg>
