<?xml version="1.0" encoding="utf-8"?>
<!-- Generator: Adobe Illustrator 21.1.0, SVG Export Plug-In . SVG Version: 6.00 Build 0)  -->
<svg version="1.1" id="圖層_1" xmlns="http://www.w3.org/2000/svg" xmlns:xlink="http://www.w3.org/1999/xlink" x="0px" y="0px"
	 viewBox="0 0 253.6 72" style="enable-background:new 0 0 253.6 72;" xml:space="preserve">
<style type="text/css">
	.st0{fill:#FFFFFF;}
</style>
<g>
	
		<image style="overflow:visible;opacity:0.75;" width="185" height="69" xlink:href="408C55F8.png"  transform="matrix(1 0 0 1 38.0159 6.2142)">
	</image>
	<g>
		<g>
			<path class="st0" d="M68.6,17.8c0.6,0.1,1,0.2,1,0.5c0,0.2-0.3,0.5-0.8,0.9v3.9h15v3.3h-15v6.2h7.5c0.5-0.4,0.8-0.6,0.9-0.6
				c0.2,0,0.5,0.2,0.8,0.4l1.9,1.8c0.2,0.2,0.4,0.5,0.4,0.8c0,0.2-0.4,0.6-1.2,0.9c-2.6,5-5.5,8.7-8.7,11.1c0.6,0.3,1.2,0.6,1.8,0.8
				c2.6,1.2,7,2.2,13.2,3l-2.8,3.7c-5.4-1.2-9.8-2.6-13.1-4.1c-0.8-0.4-1.6-0.8-2.3-1.2c-4,2.1-9.2,3.8-15.8,5.2l-2.5-3.3
				c4.2-0.6,7.7-1.3,10.3-2.1c1.9-0.6,3.6-1.2,5-1.9c-1-0.7-1.8-1.5-2.6-2.4c-2.2-2.2-4.2-5.2-5.7-8.8h-2.4v-3.3h11.7v-6.2H49.8
				v-3.3h15.3v-5.6L68.6,17.8z M64.5,43.1c0.8,0.8,1.8,1.5,2.8,2.2c0.6-0.4,1-0.7,1.4-1.1c2.2-1.8,4.2-4.5,6.1-8.2H59.5
				C60.7,38.8,62.4,41.2,64.5,43.1z"/>
			<path class="st0" d="M94.3,23.6V17l3.9,0.4c0.4,0.1,0.6,0.2,0.6,0.5c0,0.3-0.3,0.7-0.9,1.1v4.5h4.7V27h-4.7v8
				c1.6-0.9,3.2-1.8,4.8-2.8v3.4l-4.8,2.9v10.7c0,1.6-0.5,2.8-1.4,3.5c-0.8,0.8-2.6,1.2-5.7,1.2l-1.4-3.6h3.1c1.1,0,1.7-0.6,1.8-1.7
				v-7.9l-3.3,2c-0.4,0.9-0.8,1.3-1.1,1.3c-0.2,0-0.4-0.2-0.6-0.7L88,39.7c2.1-0.8,4.2-1.8,6.2-2.8V27h-5.6v-3.4H94.3z M112.1,21.9
				v-4.5l3.3,0.2c0.6,0.1,1,0.2,1,0.5c0,0.2-0.2,0.5-0.6,1v2.8h8.4V25h-8.4v5h7.5v3.1h-4.6v4.7h6.9v3.1h-6.9V50c0,1.4-0.4,2.4-1.3,3
				c-0.8,0.7-2.7,1-5.7,1l-1.4-3.6h3.1c1.1,0,1.7-0.4,1.8-1.1v-8.4h-13.2v-3.1h13.2v-4.7h-10.6V30h7.6v-5h-8.3v-3.1H112.1z
				 M111.6,47l-2.5,2.3c-1.8-2.1-3.5-3.8-5.2-5.2l2.4-2.2C108.1,43.4,109.9,45.1,111.6,47z"/>
			<path class="st0" d="M138.9,19.2c0.4,0.2,0.6,0.4,0.6,0.5c0,0.3-0.2,0.6-0.6,0.8l-4.6,5.3c0.9,0.7,1.8,1.4,2.8,2l3.3-4.5l2.6,1.7
				c0.3,0.2,0.4,0.4,0.4,0.7c0,0.2-0.3,0.4-0.8,0.4l-6.9,8.7c1.4-0.1,2.7-0.2,4-0.4c-0.3-0.8-0.6-1.5-0.8-2.2l2.8-0.6
				c1,2.5,1.7,4.9,2.2,7.2l-2.8,0.4c-0.2-0.7-0.4-1.4-0.6-2.2c-0.8,0.2-1.6,0.3-2.6,0.4v16.3h-3.3V37.9c-1.2,0.2-2.6,0.4-3.9,0.5
				c-0.3,0.3-0.5,0.5-0.8,0.5c-0.2,0-0.4-0.2-0.4-0.5l-0.7-3.1c1,0,2-0.1,3-0.2l3.3-4.6c-2.3-1.7-4.4-3.2-6.2-4.6l1.9-2.5
				c0.3,0.2,0.7,0.4,1,0.7l4.6-6.3L138.9,19.2z M132.9,41c0.4,0,0.6,0.2,0.6,0.4c0,0.2-0.2,0.4-0.4,0.6c-0.2,2.7-0.3,4.7-0.5,6
				c-0.2,1-0.4,1.9-0.6,2.9l-3.1-0.6c0.4-1.1,0.6-2,0.7-2.8c0.2-1.4,0.4-3.6,0.6-6.7L132.9,41z M143.5,49.1l-3,0.6
				c-0.6-3-1.3-5.8-2.2-8.3l3-0.6C142.3,43.7,143,46.4,143.5,49.1z M164.7,20v3.1h-8.8l-1.5,3.9h9.6v26.9H161v-2.8h-13.9v2.7h-3.1
				V27h7l1.4-3.9h-9.7V20H164.7z M149.6,48.1V30h-2.5v18.1H149.6z M155.5,34.1V30h-3v4.1H155.5z M155.5,40.9v-4h-3v4H155.5z
				 M155.5,48.1v-4.4h-3v4.4H155.5z M161,48.1V30h-2.5v18.1H161z"/>
			<path class="st0" d="M181.3,18.8c0.4,0.1,0.6,0.3,0.6,0.5c0,0.2-0.3,0.6-0.9,1c-0.4,0.7-0.7,1.3-1.1,1.9h22.5
				c0,12.4-0.3,20.2-1,23.4c-0.4,3.2-1.2,5.3-2.6,6.4c-1.4,1.2-3.8,1.9-7.1,1.9l-1.7-3.6c3.6,0,5.8-0.4,6.4-1.1
				c0.6-0.6,1.2-2,1.5-4.2c0.6-2.4,0.8-9,0.9-19.7h-21.1c-1,1.4-2.1,2.6-3.2,3.8h18.8v19h-3.3v-1.9h-12.6v2.8h-3.3V29.5
				c-0.8,0.8-1.6,1.6-2.4,2.2l-3.3-2.4c4.1-2.9,7.3-6.8,9.6-11.6L181.3,18.8z M182.2,36.1v-4h-4.7v4H182.2z M182.2,43.1v-4.2h-4.7
				v4.2H182.2z M185.3,36.1h4.8v-4h-4.8V36.1z M190.2,43.1v-4.2h-4.8v4.2H190.2z"/>
		</g>
	</g>
</g>
</svg>
