<?xml version="1.0" encoding="utf-8"?>
<!-- Generator: Adobe Illustrator 21.1.0, SVG Export Plug-In . SVG Version: 6.00 Build 0)  -->
<svg version="1.1" id="Layer_1" xmlns="http://www.w3.org/2000/svg" xmlns:xlink="http://www.w3.org/1999/xlink" x="0px" y="0px"
	 viewBox="0 0 60 60" style="enable-background:new 0 0 60 60;" xml:space="preserve">
<g>
	<path d="M50.2,45.5c-1.1,0-1.5-0.4-2.1-0.7c-0.6-0.4-1.4-0.9-2.8-0.9c-1.4,0-2.1,0.5-2.8,0.9c-0.6,0.4-1.1,0.7-2.1,0.7
		c-1.1,0-1.5-0.4-2.1-0.7c-0.6-0.4-1.4-0.9-2.8-0.9c-1.4,0-2.1,0.5-2.8,0.9c-0.6,0.4-1.1,0.7-2.1,0.7c-1.1,0-1.5-0.4-2.1-0.7
		c-0.6-0.4-1.4-0.9-2.8-0.9s-2.1,0.5-2.8,0.9c-0.6,0.4-1.1,0.7-2.1,0.7c-1.1,0-1.5-0.4-2.1-0.7c-0.6-0.4-1.4-0.9-2.8-0.9
		s-2.1,0.5-2.8,0.9c-0.6,0.4-1.1,0.7-2.1,0.7c-0.4,0-0.6,0.2-0.6,0.6s0.2,0.6,0.6,0.6c1.4,0,2.1-0.5,2.8-0.9
		c0.6-0.4,1.1-0.7,2.1-0.7s1.5,0.4,2.1,0.7c0.6,0.4,1.4,0.9,2.8,0.9c1.4,0,2.1-0.5,2.8-0.9c0.6-0.4,1.1-0.7,2.1-0.7
		c1.1,0,1.5,0.4,2.1,0.7c0.6,0.4,1.4,0.9,2.8,0.9c1.4,0,2.1-0.5,2.8-0.9c0.6-0.4,1.1-0.7,2.1-0.7c1.1,0,1.5,0.4,2.1,0.7
		c0.6,0.4,1.4,0.9,2.8,0.9c1.4,0,2.1-0.5,2.8-0.9c0.6-0.4,1.1-0.7,2.1-0.7c1.1,0,1.5,0.4,2.1,0.7c0.6,0.4,1.4,0.9,2.8,0.9
		c0.4,0,0.6-0.2,0.6-0.6S50.6,45.5,50.2,45.5z"/>
	<path d="M12.5,36.9l0.9,3.3c0.2,0.8,0.5,1.6,0.9,2.3c0.1,0.2,0.4,0.4,0.6,0.3l0,0c0.4-0.1,0.6-0.5,0.4-0.8
		c-0.3-0.6-0.6-1.3-0.8-2.1l-0.9-3.4c-0.1-0.5-0.5-0.8-1-0.8h-0.8c-0.8,0-1.5-0.7-1.4-1.5c0.1-0.7,0.8-1.2,1.5-1.2h0.7h3.8
		c0.3,0,0.6,0.2,0.8,0.5l0.8,1.6c0.3,0.6,0.9,0.9,1.5,0.9h20.9c0.6,0,1.2-0.4,1.5-0.9l0.8-1.6c0.1-0.3,0.4-0.5,0.8-0.5h4.3h0.1
		c0.7,0,1.4,0.5,1.5,1.2c0.1,0.8-0.6,1.5-1.4,1.5h-0.3c-0.4,0-0.7,0.2-0.8,0.6l-0.6,2.5c-0.3,1.1-0.8,2.2-1.2,3.1
		c-0.2,0.4-0.1,0.8,0.4,0.9c0.2,0.1,0.5,0,0.7-0.2c0.5-0.9,1.1-2.2,1.4-3.3l0.6-2.2h0.1c0.7,0,1.4-0.3,1.9-0.8
		c0.5-0.5,0.8-1.2,0.7-1.9c-0.1-1.4-1.2-2.5-2.6-2.5l0,0H48h-4.3c-0.8,0-1.5,0.4-1.8,1.1L41,34.5c-0.1,0.2-0.3,0.3-0.5,0.3h-10v-2.9
		h7.7c0.9,0,1.7-0.5,2.1-1.4c0.5-1.2,1.4-3.9,1.4-7.5c0-3.3-0.7-5.8-1.3-7.3c-0.4-0.9-1.2-1.5-2.2-1.5h-7.6v-1l3.1-1.2
		c0.2-0.1,0.4-0.4,0.4-0.6s-0.2-0.5-0.4-0.6l-3.3-1.3c-0.2,0-0.2,0-0.4,0l0,0c-0.4,0-0.6,0.2-0.6,0.6v4.2h-9.6c-0.5,0-1,0.2-1.3,0.7
		c-0.3,0.4-0.4,0.9-0.2,1.5c0.5,1.5,1.2,3.9,1.2,6.7c0,2.9-0.6,5.3-1.2,6.8c-0.2,0.5-0.1,1,0.2,1.4c0.3,0.4,0.8,0.6,1.2,0.6h9.7v2.8
		h-9.8c-0.2,0-0.4-0.1-0.5-0.3l-0.8-1.6c-0.4-0.7-1.1-1.1-1.8-1.1h-3.8h-0.7c-1.4,0-2.6,1.1-2.6,2.5c-0.1,0.7,0.2,1.4,0.7,1.9
		c0.5,0.5,1.2,0.8,1.9,0.8L12.5,36.9L12.5,36.9z M30.6,12v-1.1l1.5,0.6L30.6,12z M19.4,30.6c-0.1-0.1-0.1-0.2-0.1-0.3
		c0.6-1.6,1.3-4.2,1.3-7.2s-0.7-5.5-1.2-7.1c-0.1-0.2,0-0.3,0.1-0.4c0.1-0.1,0.2-0.2,0.4-0.2h9.6v0.9c0,0.4,0.2,0.6,0.6,0.6
		c0.4,0,0.6-0.2,0.6-0.6v-0.9h7.6c0.5,0,0.9,0.3,1.1,0.8c0.5,1.4,1.2,3.8,1.2,6.9c0,3.3-0.8,5.8-1.3,7c-0.2,0.4-0.5,0.6-0.9,0.6
		H19.7C19.5,30.7,19.4,30.6,19.4,30.6z"/>
</g>
</svg>
