<?xml version="1.0" encoding="utf-8"?>
<!-- Generator: Adobe Illustrator 21.1.0, SVG Export Plug-In . SVG Version: 6.00 Build 0)  -->
<svg version="1.1" id="圖層_1" xmlns="http://www.w3.org/2000/svg" xmlns:xlink="http://www.w3.org/1999/xlink" x="0px" y="0px"
	 viewBox="0 0 500 300" style="enable-background:new 0 0 500 300;" xml:space="preserve">
<style type="text/css">
	.st0{fill:#FF9933;}
	.st1{fill:#FFFFFF;}
	.st2{fill:#128807;}
	.st3{fill:#000088;}
</style>
<rect x="0" class="st0" width="500" height="300"/>
<rect x="0" y="100" class="st1" width="500" height="100"/>
<rect x="0" y="200" class="st2" width="500" height="100"/>
<path class="st3" d="M250,110c-22.1,0-40,17.9-40,40s17.9,40,40,40s40-17.9,40-40S272.1,110,250,110z M283,154.3
	c-0.1,0.9,0.5,1.8,1.5,2c-0.3,1.9-0.8,3.7-1.5,5.5c-0.9-0.3-1.9,0.1-2.2,1c-0.4,0.9,0,1.9,0.9,2.3c-0.4,0.9-0.9,1.7-1.3,2.5
	L262.7,156l-6.5-2.8c0.2-0.3,0.3-0.7,0.4-1l6.6,2.6l20.6,4.3l-20-6.6l-7-1c0.1-0.4,0.1-0.7,0.1-1.1l7,0.8l21-1.2l-21-1.2l-7,0.8
	c0-0.4-0.1-0.7-0.1-1.1l7-1l20-6.6l-20.6,4.3l-6.6,2.6c-0.1-0.4-0.3-0.7-0.4-1l6.5-2.8l17.6-11.5c0.5,0.8,0.9,1.6,1.3,2.5
	c-0.9,0.4-1.3,1.4-0.9,2.3c0.4,0.9,1.4,1.3,2.2,1c0.6,1.8,1.1,3.6,1.5,5.5c-0.9,0.1-1.6,1-1.5,2c0.1,0.9,1,1.6,1.9,1.5
	c0.1,0.9,0.1,1.9,0.1,2.8s0,1.9-0.1,2.8C283.9,152.7,283.1,153.4,283,154.3z M276.7,127.3c-0.7,0.6-0.9,1.7-0.3,2.4
	c0.6,0.8,1.6,0.9,2.4,0.3c0.5,0.8,1,1.6,1.5,2.4l-18.8,9.5l-5.7,4.2c-0.2-0.3-0.4-0.6-0.7-0.9l5.6-4.4l14-15.7l-15.7,14l-4.4,5.6
	c-0.3-0.2-0.6-0.5-0.9-0.7l4.2-5.7l9.5-18.8c0.8,0.5,1.6,1,2.4,1.5c-0.6,0.8-0.4,1.8,0.3,2.4c0.8,0.6,1.8,0.4,2.4-0.3
	c0.7,0.6,1.4,1.2,2.1,1.9C275.4,125.9,276.1,126.6,276.7,127.3z M252.8,115.1c-0.1,0.9,0.6,1.8,1.5,1.9c0.9,0.1,1.8-0.5,2-1.5
	c1.9,0.3,3.7,0.8,5.5,1.5c-0.3,0.9,0.1,1.9,1,2.2c0.9,0.4,1.9,0,2.3-0.9c0.9,0.4,1.7,0.9,2.5,1.3L256,137.3l-2.8,6.5
	c-0.3-0.2-0.7-0.3-1-0.4l2.6-6.6l4.3-20.6l-6.6,20l-1,7c-0.4-0.1-0.7-0.1-1.1-0.1l0.8-7l-1.2-21l-1.2,21l0.8,7
	c-0.4,0-0.7,0.1-1.1,0.1l-1-7l-6.6-20l4.3,20.6l2.6,6.6c-0.4,0.1-0.7,0.3-1,0.4l-2.8-6.5l-11.5-17.6c0.8-0.5,1.6-0.9,2.5-1.3
	c0.4,0.9,1.4,1.3,2.3,0.9c0.9-0.4,1.3-1.4,1-2.2c1.8-0.6,3.6-1.1,5.5-1.5c0.1,0.9,1,1.6,2,1.5c0.9-0.1,1.6-1,1.5-1.9
	c0.9-0.1,1.9-0.1,2.8-0.1S251.9,115,252.8,115.1z M227.3,123.3c0.6,0.7,1.7,0.9,2.4,0.3c0.8-0.6,0.9-1.6,0.3-2.4
	c0.8-0.5,1.6-1,2.4-1.5l9.5,18.8l4.2,5.7c-0.3,0.2-0.6,0.4-0.9,0.7l-4.4-5.6l-15.7-14l14,15.7l5.6,4.4c-0.2,0.3-0.5,0.6-0.7,0.9
	l-5.7-4.2l-18.8-9.5c0.5-0.8,1-1.6,1.5-2.4c0.8,0.6,1.8,0.4,2.4-0.3c0.6-0.8,0.4-1.8-0.3-2.4c0.6-0.7,1.2-1.4,1.9-2.1
	C225.9,124.6,226.6,123.9,227.3,123.3z M236.2,147.5l7,1c-0.1,0.4-0.1,0.7-0.1,1.1l-7-0.8l-21,1.2l21,1.2l7-0.8
	c0,0.4,0.1,0.7,0.1,1.1l-7,1l-20,6.6l20.6-4.3l6.6-2.6c0.1,0.4,0.3,0.7,0.4,1l-6.5,2.8l-17.6,11.5c-0.5-0.8-0.9-1.6-1.3-2.5
	c0.9-0.4,1.3-1.4,0.9-2.3c-0.4-0.9-1.4-1.3-2.2-1c-0.6-1.8-1.1-3.6-1.5-5.5c0.9-0.1,1.6-1,1.5-2c-0.1-0.9-1-1.6-1.9-1.5
	c-0.1-0.9-0.1-1.9-0.1-2.8s0-1.9,0.1-2.8c0.9,0.1,1.8-0.6,1.9-1.5c0.1-0.9-0.5-1.8-1.5-2c0.3-1.9,0.8-3.7,1.5-5.5
	c0.9,0.3,1.9-0.1,2.2-1c0.4-0.9,0-1.9-0.9-2.3c0.4-0.9,0.9-1.7,1.3-2.5l17.6,11.5l6.5,2.8c-0.2,0.3-0.3,0.7-0.4,1l-6.6-2.6
	l-20.6-4.3L236.2,147.5z M223.3,172.7c0.7-0.6,0.9-1.7,0.3-2.4c-0.6-0.8-1.6-0.9-2.4-0.3c-0.5-0.8-1-1.6-1.5-2.4l18.8-9.5l5.7-4.2
	c0.2,0.3,0.4,0.6,0.7,0.9l-5.6,4.4l-14,15.7l15.7-14l4.4-5.6c0.3,0.2,0.6,0.5,0.9,0.7l-4.2,5.7l-9.5,18.8c-0.8-0.5-1.6-1-2.4-1.5
	c0.6-0.8,0.4-1.8-0.3-2.4c-0.8-0.6-1.8-0.4-2.4,0.3c-0.7-0.6-1.4-1.2-2.1-1.9S223.9,173.4,223.3,172.7z M247.2,184.9
	c0.1-0.9-0.6-1.8-1.5-1.9c-0.9-0.1-1.8,0.5-2,1.5c-1.9-0.3-3.7-0.8-5.5-1.5c0.3-0.9-0.1-1.9-1-2.2c-0.9-0.4-1.9,0-2.3,0.9
	c-0.9-0.4-1.7-0.9-2.5-1.3l11.5-17.6l2.8-6.5c0.3,0.2,0.7,0.3,1,0.4l-2.6,6.6l-4.3,20.6l6.6-20l1-7c0.4,0.1,0.7,0.1,1.1,0.1l-0.8,7
	l1.2,21l1.2-21l-0.8-7c0.4,0,0.7-0.1,1.1-0.1l1,7l6.6,20l-4.3-20.6l-2.6-6.6c0.4-0.1,0.7-0.3,1-0.4l2.8,6.5l11.5,17.6
	c-0.8,0.5-1.6,0.9-2.5,1.3c-0.4-0.9-1.4-1.3-2.3-0.9c-0.9,0.4-1.3,1.4-1,2.2c-1.8,0.6-3.6,1.1-5.5,1.5c-0.1-0.9-1-1.6-2-1.5
	c-0.9,0.1-1.6,1-1.5,1.9c-0.9,0.1-1.9,0.1-2.8,0.1S248.1,185,247.2,184.9z M272.7,176.7c-0.6-0.7-1.7-0.9-2.4-0.3
	c-0.8,0.6-0.9,1.6-0.3,2.4c-0.8,0.5-1.6,1-2.4,1.5l-9.5-18.8l-4.2-5.7c0.3-0.2,0.6-0.4,0.9-0.7l4.4,5.6l15.7,14l-14-15.7l-5.6-4.4
	c0.2-0.3,0.5-0.6,0.7-0.9l5.7,4.2l18.8,9.5c-0.5,0.8-1,1.6-1.5,2.4c-0.8-0.6-1.8-0.4-2.4,0.3c-0.6,0.8-0.4,1.8,0.3,2.4
	c-0.6,0.7-1.2,1.4-1.9,2.1C274.1,175.4,273.4,176.1,272.7,176.7z"/>
</svg>
