<?xml version="1.0" encoding="utf-8"?>
<!-- Generator: Adobe Illustrator 21.1.0, SVG Export Plug-In . SVG Version: 6.00 Build 0)  -->
<svg version="1.1" id="圖層_1" xmlns="http://www.w3.org/2000/svg" xmlns:xlink="http://www.w3.org/1999/xlink" x="0px" y="0px"
	 viewBox="0 0 500 300" style="enable-background:new 0 0 500 300;" xml:space="preserve">
<style type="text/css">
	.st0{fill:#CE1126;}
	.st1{fill:#0038A8;}
	.st2{fill:#FFFFFF;}
	.st3{fill:#FCD116;}
</style>
<title>War flag of the Philippines</title>
<rect y="-1.4" class="st0" width="500" height="301.4"/>
<rect y="149.3" class="st1" width="500" height="150.7"/>
<path class="st2" d="M261.1,149.3L0,300V-1.4"/>
<g>
	<path class="st3" d="M153.5,153.2l3.9-3.9l-3.9-3.9l-29.7,1.9c0-0.7-0.1-1.3-0.2-2l27.1-3.6l-3.2-3.2l-24.2,4.8
		c-0.8-4-2.3-7.6-4.5-10.9l20.5-13.7v-4.5l-21.7,16.6c-0.4-0.5-0.8-1-1.3-1.5l22.3-19.6v-5.5h-5.5l-19.6,22.3
		c-0.5-0.4-1-0.9-1.5-1.3l16.6-21.7h-4.5l-13.7,20.5c-3.2-2.2-6.9-3.7-10.9-4.5l4.8-24.2l-3.2-3.2l-3.6,27.1c-0.6-0.1-1.3-0.2-2-0.2
		l1.9-29.7l-3.9-3.9l-3.9,3.9l1.9,29.7c-0.7,0-1.3,0.1-2,0.2l-3.6-27.1l-3.2,3.2l4.8,24.2c-4,0.8-7.6,2.3-10.9,4.5l-13.7-20.5h-4.5
		l16.6,21.7c-0.5,0.4-1,0.8-1.5,1.3l-19.6-22.3h-5.5v5.5l22.3,19.6c-0.4,0.5-0.9,1-1.3,1.5l-21.7-16.6v4.5l20.5,13.7
		c-2.2,3.2-3.7,6.9-4.5,10.9L40,138.6l-3.2,3.2l27.1,3.6c-0.1,0.6-0.2,1.3-0.2,2l-29.7-1.9l-3.9,3.9l3.9,3.9l29.7-1.9
		c0,0.7,0.1,1.3,0.2,2l-27.1,3.6L40,160l24.2-4.8c0.8,4,2.3,7.6,4.5,10.9l-20.5,13.7v4.5l21.7-16.6c0.4,0.5,0.8,1,1.3,1.5
		l-22.3,19.6v5.5h5.5l19.6-22.3c0.5,0.4,1,0.9,1.5,1.3l-16.6,21.7h4.5L77,174.3c3.2,2.2,6.9,3.7,10.9,4.5L83.1,203l3.2,3.2l3.6-27.1
		c0.6,0.1,1.3,0.2,2,0.2L89.9,209l3.9,3.9l3.9-3.9l-1.9-29.7c0.7,0,1.3-0.1,2-0.2l3.6,27.1l3.2-3.2l-4.8-24.2
		c4-0.8,7.6-2.3,10.9-4.5l13.7,20.5h4.5l-16.6-21.7c0.5-0.4,1-0.8,1.5-1.3l19.6,22.3h5.5v-5.5l-22.3-19.6c0.4-0.5,0.9-1,1.3-1.5
		l21.7,16.6v-4.5L118.8,166c2.2-3.2,3.7-6.9,4.5-10.9l24.2,4.8l3.2-3.2l-27.1-3.6c0.1-0.6,0.2-1.3,0.2-2L153.5,153.2z"/>
	<polygon class="st3" points="219.6,145.3 219.3,133.4 212.1,142.9 200.6,139.4 207.5,149.3 200.6,159.1 212.1,155.6 219.3,165.2 
		219.6,153.2 230.9,149.3 	"/>
	<polygon class="st3" points="38.7,252.6 26.8,253.6 21.7,242.7 19,254.4 7.1,255.9 17.3,262.1 15.1,273.9 24.1,266.1 34.7,271.8 
		30,260.8 	"/>
	<polygon class="st3" points="30,37.8 34.7,26.7 24.1,32.5 15.1,24.7 17.3,36.4 7.1,42.6 19,44.1 21.7,55.8 26.8,45 38.7,46 	"/>
</g>
</svg>
