<?xml version="1.0" encoding="utf-8"?>
<!-- Generator: Adobe Illustrator 21.1.0, SVG Export Plug-In . SVG Version: 6.00 Build 0)  -->
<svg version="1.1" id="圖層_1" xmlns="http://www.w3.org/2000/svg" xmlns:xlink="http://www.w3.org/1999/xlink" x="0px" y="0px"
	 viewBox="0 0 253.6 72" style="enable-background:new 0 0 253.6 72;" xml:space="preserve">
<style type="text/css">
	.st0{fill:#FFFFFF;}
</style>
<g>
	
		<image style="overflow:visible;opacity:0.75;" width="227" height="69" xlink:href="4CA68E1B.png"  transform="matrix(1 0 0 1 18.03 6.2142)">
	</image>
	<g>
		<g>
			<path class="st0" d="M48.6,17.8c0.6,0.1,1,0.2,1,0.5c0,0.2-0.3,0.5-0.8,0.9v3.9h15v3.3h-15v6.2h7.5c0.5-0.4,0.8-0.6,0.9-0.6
				c0.2,0,0.5,0.2,0.8,0.4l1.9,1.8c0.2,0.2,0.4,0.5,0.4,0.8c0,0.2-0.4,0.6-1.2,0.9c-2.6,5-5.5,8.7-8.7,11.1c0.6,0.3,1.2,0.6,1.8,0.8
				c2.6,1.2,7,2.2,13.2,3l-2.8,3.7c-5.4-1.2-9.8-2.6-13.1-4.1c-0.8-0.4-1.6-0.8-2.3-1.2c-4,2.1-9.2,3.8-15.8,5.2l-2.5-3.3
				c4.2-0.6,7.7-1.3,10.3-2.1c1.9-0.6,3.6-1.2,5-1.9c-1-0.7-1.8-1.5-2.6-2.4c-2.2-2.2-4.2-5.2-5.7-8.8h-2.4v-3.3h11.7v-6.2H29.8
				v-3.3h15.3v-5.6L48.6,17.8z M44.5,43.1c0.8,0.8,1.8,1.5,2.8,2.2c0.6-0.4,1-0.7,1.4-1.1c2.2-1.8,4.2-4.5,6.1-8.2H39.5
				C40.7,38.8,42.4,41.2,44.5,43.1z"/>
			<path class="st0" d="M74.3,23.6V17l3.9,0.4c0.4,0.1,0.6,0.2,0.6,0.5c0,0.3-0.3,0.7-0.9,1.1v4.5h4.7V27h-4.7v8
				c1.6-0.9,3.2-1.8,4.8-2.8v3.4l-4.8,2.9v10.7c0,1.6-0.5,2.8-1.4,3.5c-0.8,0.8-2.6,1.2-5.7,1.2l-1.4-3.6h3.1c1.1,0,1.7-0.6,1.8-1.7
				v-7.9l-3.3,2c-0.4,0.9-0.8,1.3-1.1,1.3c-0.2,0-0.4-0.2-0.6-0.7L68,39.7c2.1-0.8,4.2-1.8,6.2-2.8V27h-5.6v-3.4H74.3z M92.1,21.9
				v-4.5l3.3,0.2c0.6,0.1,1,0.2,1,0.5c0,0.2-0.2,0.5-0.6,1v2.8h8.4V25h-8.4v5h7.5v3.1h-4.6v4.7h6.9v3.1h-6.9V50c0,1.4-0.4,2.4-1.3,3
				c-0.8,0.7-2.7,1-5.7,1l-1.4-3.6h3.1c1.1,0,1.7-0.4,1.8-1.1v-8.4H81.9v-3.1h13.2v-4.7H84.4V30h7.6v-5h-8.3v-3.1H92.1z M91.6,47
				l-2.5,2.3c-1.8-2.1-3.5-3.8-5.2-5.2l2.4-2.2C88.1,43.4,89.9,45.1,91.6,47z"/>
			<path class="st0" d="M142.9,18.6V27h-27.4l1.5,0.8c0.4,0.2,0.6,0.3,0.6,0.5c0,0.3-0.2,0.6-0.6,0.8l-2.5,3.4
				c0.6,0.4,1.2,0.9,1.7,1.3l3-4.2l2.4,1.6c0.2,0.2,0.4,0.4,0.4,0.6c0,0.2-0.2,0.4-0.6,0.5l-5.9,7.4c1.5-0.2,3-0.3,4.5-0.6
				c-0.4-0.9-0.7-1.8-1.1-2.6l2.7-0.6c0.1,0.3,0.2,0.6,0.4,0.8c2.4-2.9,4.3-6,5.6-9.2l3.1,0.7c0.4,0.1,0.7,0.2,0.7,0.4
				c0,0.3-0.3,0.6-0.8,0.8c-0.4,0.9-0.8,1.6-1.2,2.4h4.5l1.5-3.6l2.7,0.6c0.5,0.1,0.7,0.3,0.7,0.6c0,0.3-0.3,0.6-0.8,0.9l-0.7,1.6
				h6.8v3h-6.9v3.1h6.1v2.8h-6.1v3.1h6.1v2.8h-6.1v3.3h6.9v3h-15.5v1.1h-3.1V37.4c-0.4,0.5-0.8,1-1.2,1.6l-1.7-0.9
				c0.6,1.6,1,3.1,1.4,4.6l-2.6,0.5c-0.2-0.5-0.3-1-0.4-1.5c-0.8,0.2-1.6,0.3-2.5,0.5v11.7h-3.3V42.6c-1.3,0.2-2.7,0.4-4.2,0.7
				c-0.3,0.3-0.5,0.5-0.8,0.5c-0.2,0-0.4-0.2-0.4-0.5l-0.7-3.1c1,0,1.9-0.1,2.9-0.2l2.6-3.7c-1.7-1.4-3.6-2.6-5.5-3.7l2.2-2.2
				c0.3,0.2,0.7,0.4,1,0.6l2.3-3.9h-3.6v-8.4H142.9z M113.8,45.7c0.3,0,0.4,0.2,0.4,0.4c0,0.3-0.2,0.6-0.6,1c-0.5,2.2-1,4.1-1.7,5.8
				l-3.1-1.1c0.4-0.8,0.8-1.7,1.1-2.7c0.4-1.2,0.7-2.6,0.9-4.2L113.8,45.7z M120.5,21.4h-6.2v2.8h6.2V21.4z M123.8,51.6L121,52
				c-0.6-2.4-1.3-4.6-2.2-6.6l2.8-0.6C122.6,47.2,123.3,49.4,123.8,51.6z M129.9,21.4h-6.1v2.8h6.1V21.4z M133.9,34.5h-5.5v3.1h5.5
				V34.5z M133.9,40.5h-5.5v3.1h5.5V40.5z M133.9,49.7v-3.3h-5.5v3.3H133.9z M139.3,21.4h-6.1v2.8h6.1V21.4z"/>
			<path class="st0" d="M159.5,20.7c0.2,0.2,0.2,0.4,0.2,0.5c0,0.2-0.3,0.3-1,0.3c-1.1,0.6-2.2,1.2-3.4,1.7v3.6h3.6v3h-3.6v4.4h3.6
				v3h-3.6V42h4.7V19.5h13.4V42h4.9v-4.8h-3.9v-3h3.9v-4.4h-3.9v-3h3.9v-4.7h-3.8v-3.1h7v23h3.1v3.1h-24.3l2.1,1.6
				c0.2,0.2,0.3,0.4,0.3,0.6c0,0.1-0.3,0.2-0.8,0.3c-3.6,2.6-7,4.6-10.2,6l-2.8-2.8c4.2-1.4,7.7-3.2,10.6-5.6h-10.7V42h3.1V20
				l1.8,0.9c1.2-0.8,2.4-1.6,3.3-2.4L159.5,20.7z M170.7,42V22.4h-7.8V42H170.7z M169.6,24.8v2.5h-6v-2.5H169.6z M169.4,30.3V40
				h-5.5v-9.7H169.4z M167.2,32.6h-1.1v5h1.1V32.6z M184.9,50.9l-3.6,2.8c-3.6-1.8-7-3.9-10.3-6.6l2.8-1.9
				C176.7,47.5,180.5,49.3,184.9,50.9z"/>
			<path class="st0" d="M223.8,19.5V23h-10.3v5h8.6v14.8h-8.6v5.6h11.1v3.4h-35.6v-3.4h11.6v-5.6h-8.7V28h8.7v-5h-10.8v-3.4H223.8z
				 M209.9,48.4v-9.1h8.6v-8h-8.6V23h-5.8v8.4h-8.8v8h8.8v9.1H209.9z"/>
		</g>
	</g>
</g>
</svg>
