<?xml version="1.0" encoding="utf-8"?>
<!-- Generator: Adobe Illustrator 21.1.0, SVG Export Plug-In . SVG Version: 6.00 Build 0)  -->
<svg version="1.1" id="圖層_1" xmlns="http://www.w3.org/2000/svg" xmlns:xlink="http://www.w3.org/1999/xlink" x="0px" y="0px"
	 viewBox="0 0 500 300" style="enable-background:new 0 0 500 300;" xml:space="preserve">
<style type="text/css">
	.st0{fill:#B22234;}
	.st1{stroke:#FFFFFF;stroke-width:24;}
	.st2{fill:#3C3B6E;}
	.st3{fill:#FFFFFF;}
</style>
<rect class="st0" width="500" height="300"/>
<path class="st1" d="M0,34.6h500 M500,80.8H0 M0,126.9h500 M500,173.1H0 M0,219.2h500 M500,265.4H0"/>
<rect class="st2" width="228" height="161.5"/>
<g>
	<g>
		<g>
			<g id="s5">
				<g id="s4">
					<path id="s" class="st3" d="M19,6.9l5.4,16.7L10.2,13.3h17.6L13.6,23.6L19,6.9z"/>
					<g>
						<path id="s_1_" class="st3" d="M19,39.2l5.4,16.7L10.2,45.6h17.6L13.6,55.9L19,39.2z"/>
					</g>
					<g>
						<path id="s_2_" class="st3" d="M19,71.5l5.4,16.7L10.2,77.9h17.6L13.6,88.2L19,71.5z"/>
					</g>
					<g>
						<path id="s_3_" class="st3" d="M19,103.8l5.4,16.7l-14.2-10.3h17.6l-14.2,10.3L19,103.8z"/>
					</g>
				</g>
				<g>
					<path id="s_4_" class="st3" d="M19,136.2l5.4,16.7l-14.2-10.3h17.6l-14.2,10.3L19,136.2z"/>
				</g>
			</g>
			<g id="s9">
				<g id="s4_1_">
					<path id="s_5_" class="st3" d="M38,23.1l5.4,16.7L29.2,29.5h17.6L32.6,39.8L38,23.1z"/>
					<g>
						<path id="s_6_" class="st3" d="M38,55.4l5.4,16.7L29.2,61.8h17.6L32.6,72.1L38,55.4z"/>
					</g>
					<g>
						<path id="s_7_" class="st3" d="M38,87.7l5.4,16.7L29.2,94.1h17.6l-14.2,10.3L38,87.7z"/>
					</g>
					<g>
						<path id="s_8_" class="st3" d="M38,120l5.4,16.7l-14.2-10.3h17.6l-14.2,10.3L38,120z"/>
					</g>
				</g>
			</g>
			<g>
				<g id="s18">
					<g id="s5_1_">
						<g id="s4_2_">
							<path id="s_9_" class="st3" d="M57,6.9l5.4,16.7L48.2,13.3h17.6L51.6,23.6L57,6.9z"/>
							<g>
								<path id="s_10_" class="st3" d="M57,39.2l5.4,16.7L48.2,45.6h17.6L51.6,55.9L57,39.2z"/>
							</g>
							<g>
								<path id="s_11_" class="st3" d="M57,71.5l5.4,16.7L48.2,77.9h17.6L51.6,88.2L57,71.5z"/>
							</g>
							<g>
								<path id="s_12_" class="st3" d="M57,103.8l5.4,16.7l-14.2-10.3h17.6l-14.2,10.3L57,103.8z"/>
							</g>
						</g>
						<g>
							<path id="s_13_" class="st3" d="M57,136.2l5.4,16.7l-14.2-10.3h17.6l-14.2,10.3L57,136.2z"/>
						</g>
					</g>
					<g id="s9_1_">
						<g id="s4_3_">
							<path id="s_14_" class="st3" d="M76,23.1l5.4,16.7L67.2,29.5h17.6L70.6,39.8L76,23.1z"/>
							<g>
								<path id="s_15_" class="st3" d="M76,55.4l5.4,16.7L67.2,61.8h17.6L70.6,72.1L76,55.4z"/>
							</g>
							<g>
								<path id="s_16_" class="st3" d="M76,87.7l5.4,16.7L67.2,94.1h17.6l-14.2,10.3L76,87.7z"/>
							</g>
							<g>
								<path id="s_17_" class="st3" d="M76,120l5.4,16.7l-14.2-10.3h17.6l-14.2,10.3L76,120z"/>
							</g>
						</g>
					</g>
				</g>
				<g>
					<g>
						<g>
							<g id="s5_2_">
								<g id="s4_4_">
									<path id="s_18_" class="st3" d="M95,6.9l5.4,16.7L86.2,13.3h17.6L89.6,23.6L95,6.9z"/>
									<g>
										<path id="s_19_" class="st3" d="M95,39.2l5.4,16.7L86.2,45.6h17.6L89.6,55.9L95,39.2z"/>
									</g>
									<g>
										<path id="s_20_" class="st3" d="M95,71.5l5.4,16.7L86.2,77.9h17.6L89.6,88.2L95,71.5z"/>
									</g>
									<g>
										<path id="s_21_" class="st3" d="M95,103.8l5.4,16.7l-14.2-10.3h17.6l-14.2,10.3L95,103.8z"/>
									</g>
								</g>
								<g>
									<path id="s_22_" class="st3" d="M95,136.2l5.4,16.7l-14.2-10.3h17.6l-14.2,10.3L95,136.2z"/>
								</g>
							</g>
							<g id="s9_2_">
								<g id="s4_5_">
									<path id="s_23_" class="st3" d="M114,23.1l5.4,16.7l-14.2-10.3h17.6l-14.2,10.3L114,23.1z"/>
									<g>
										<path id="s_24_" class="st3" d="M114,55.4l5.4,16.7l-14.2-10.3h17.6l-14.2,10.3L114,55.4z"/>
									</g>
									<g>
										<path id="s_25_" class="st3" d="M114,87.7l5.4,16.7l-14.2-10.3h17.6l-14.2,10.3L114,87.7z"/>
									</g>
									<g>
										<path id="s_26_" class="st3" d="M114,120l5.4,16.7l-14.2-10.3h17.6l-14.2,10.3L114,120z"/>
									</g>
								</g>
							</g>
							<g>
								<g id="s18_1_">
									<g id="s5_3_">
										<g id="s4_6_">
											<path id="s_27_" class="st3" d="M133,6.9l5.4,16.7l-14.2-10.3h17.6l-14.2,10.3L133,6.9z"/>
											<g>
												<path id="s_28_" class="st3" d="M133,39.2l5.4,16.7l-14.2-10.3h17.6l-14.2,10.3L133,39.2z"/>
											</g>
											<g>
												<path id="s_29_" class="st3" d="M133,71.5l5.4,16.7l-14.2-10.3h17.6l-14.2,10.3L133,71.5z"/>
											</g>
											<g>
												<path id="s_30_" class="st3" d="M133,103.8l5.4,16.7l-14.2-10.3h17.6l-14.2,10.3L133,103.8z"/>
											</g>
										</g>
										<g>
											<path id="s_31_" class="st3" d="M133,136.2l5.4,16.7l-14.2-10.3h17.6l-14.2,10.3L133,136.2z"/>
										</g>
									</g>
									<g id="s9_3_">
										<g id="s4_7_">
											<path id="s_32_" class="st3" d="M152,23.1l5.4,16.7l-14.2-10.3h17.6l-14.2,10.3L152,23.1z"/>
											<g>
												<path id="s_33_" class="st3" d="M152,55.4l5.4,16.7l-14.2-10.3h17.6l-14.2,10.3L152,55.4z"/>
											</g>
											<g>
												<path id="s_34_" class="st3" d="M152,87.7l5.4,16.7l-14.2-10.3h17.6l-14.2,10.3L152,87.7z"/>
											</g>
											<g>
												<path id="s_35_" class="st3" d="M152,120l5.4,16.7l-14.2-10.3h17.6l-14.2,10.3L152,120z"/>
											</g>
										</g>
									</g>
								</g>
								<g>
									<g>
										<g id="s5_4_">
											<g id="s4_8_">
												<path id="s_36_" class="st3" d="M171,6.9l5.4,16.7l-14.2-10.3h17.6l-14.2,10.3L171,6.9z"/>
												<g>
													<path id="s_37_" class="st3" d="M171,39.2l5.4,16.7l-14.2-10.3h17.6l-14.2,10.3L171,39.2z"/>
												</g>
												<g>
													<path id="s_38_" class="st3" d="M171,71.5l5.4,16.7l-14.2-10.3h17.6l-14.2,10.3L171,71.5z"/>
												</g>
												<g>
													<path id="s_39_" class="st3" d="M171,103.8l5.4,16.7l-14.2-10.3h17.6l-14.2,10.3L171,103.8z"/>
												</g>
											</g>
											<g>
												<path id="s_40_" class="st3" d="M171,136.2l5.4,16.7l-14.2-10.3h17.6l-14.2,10.3L171,136.2z"/>
											</g>
										</g>
										<g id="s9_4_">
											<g id="s4_9_">
												<path id="s_41_" class="st3" d="M190,23.1l5.4,16.7l-14.2-10.3h17.6l-14.2,10.3L190,23.1z"/>
												<g>
													<path id="s_42_" class="st3" d="M190,55.4l5.4,16.7l-14.2-10.3h17.6l-14.2,10.3L190,55.4z"/>
												</g>
												<g>
													<path id="s_43_" class="st3" d="M190,87.7l5.4,16.7l-14.2-10.3h17.6l-14.2,10.3L190,87.7z"/>
												</g>
												<g>
													<path id="s_44_" class="st3" d="M190,120l5.4,16.7l-14.2-10.3h17.6l-14.2,10.3L190,120z"/>
												</g>
											</g>
										</g>
										<g>
											<g id="s5_5_">
												<g id="s4_10_">
													<path id="s_45_" class="st3" d="M209,6.9l5.4,16.7l-14.2-10.3h17.6l-14.2,10.3L209,6.9z"/>
													<g>
														<path id="s_46_" class="st3" d="M209,39.2l5.4,16.7l-14.2-10.3h17.6l-14.2,10.3L209,39.2z"/>
													</g>
													<g>
														<path id="s_47_" class="st3" d="M209,71.5l5.4,16.7l-14.2-10.3h17.6l-14.2,10.3L209,71.5z"/>
													</g>
													<g>
														<path id="s_48_" class="st3" d="M209,103.8l5.4,16.7l-14.2-10.3h17.6l-14.2,10.3L209,103.8z"/>
													</g>
												</g>
												<g>
													<path id="s_49_" class="st3" d="M209,136.2l5.4,16.7l-14.2-10.3h17.6l-14.2,10.3L209,136.2z"/>
												</g>
											</g>
										</g>
									</g>
								</g>
							</g>
						</g>
					</g>
				</g>
			</g>
		</g>
	</g>
</g>
</svg>
