<svg width="2262.1" height="1702.8" xmlns="http://www.w3.org/2000/svg">
 <style type="text/css">.st0{fill:#FDFCEC;stroke:#7C7C7A;stroke-width:0.5;stroke-miterlimit:3.9745;}
	.st1{fill:#B9B9B9;stroke:#FFFFFF;stroke-width:0.5;stroke-miterlimit:3.9745;}
	.st2{fill:#B9B9B9;stroke:#FFFFFF;stroke-width:0.9999;stroke-miterlimit:3.9745;}
	.st3{fill:#B9B9B9;fill-opacity:0;}
	.st4{fill:#939598;}
	.st5{font-family:'DFHeiStd-W12-B5pc-H';}
	.st6{font-size:45.705px;}
	.st7{display:none;}
	.st8{display:inline;fill:none;stroke:#010101;stroke-width:5;stroke-miterlimit:10;}
	.st9{display:inline;fill:none;stroke:#EC2227;stroke-width:3;stroke-miterlimit:10;}
	.st10{display:inline;fill:#405B54;}</style>

 <g>
  <title>background</title>
  <rect x="-1" y="-1" width="2264.1" height="1704.8" id="canvas_background" fill="none"/>
 </g>
 <g>
  <title>Layer 1</title>
  <g id="svg_1">
   <path class="st0" d="m251.2,145c6.4,-4.2 2.7,-2.4 1.7,-8.3c-2.5,-15.6 -11.5,-25 -19.1,-37.6c-3,-5 -0.1,-13.8 -1.3,-19.3l-266.3,0l0.1,11c4.8,-16.6 21.7,-7.1 26.7,2.2c6.7,12.5 9.9,17.1 6.9,32.9c-1.5,7.8 23.4,8.8 28.1,11.2c8.4,4.3 0.9,21.5 10.9,27.5c-10.4,7.3 1.1,20.3 10.5,18.6c-8.2,4.5 -0.4,13.5 6.9,8.7c-0.3,2.9 -0.6,5.8 -0.8,8.7c6.5,-3.3 14.1,2.3 12.5,-7.7c2.6,3.7 5.9,6.8 9.8,9.3c1.3,-3.8 1.1,-7.5 -0.6,-10.9c2.3,3.9 4.4,8.3 7.8,11.5c2,-7.8 3,-8 2.9,-0.5c0.5,-12.9 15.1,-13.1 24.6,-13.1c11.3,0 7.5,-16.9 7.7,-23c7.5,3.8 18.9,2.4 27.4,1.9c15.9,-0.8 31.3,13.3 47.1,7.1c4.8,-1.9 2.7,-7 7.1,-9.2c2.7,-1 5.4,-1.8 8.1,-2.6c5.5,-2.1 12.4,-7.1 15.8,-0.3c7.4,14.6 19.5,4.8 31,-3c-4,-0.7 -10.6,-11.8 -5.5,-15.1z" id="svg_2"/>
   <path id="path2206" class="st0" d="m1717.9,1607.3c2.3,1.7 10.9,2.6 9.8,-3.2c-0.5,-2.8 -9.8,-8.6 -12,-10.9c-2.7,-2.8 -6,-5.4 -10.3,-4.5c2.4,-6.1 -5.8,-10.7 -10,-12.6c-2.2,-1 -3.9,-5.5 -6.9,-3.1c-5.6,4.5 -5.7,9.1 -0.3,13.9c8.8,7.9 24.9,8 29.7,20.4"/>
   <path id="path2202" class="st0" d="m1658.8,1382.6c8.1,2.6 4.4,-7.9 -3.5,-5.5c1.1,1.9 2.3,3.7 3.5,5.5"/>
   <path class="st0" d="m2095.1,1715.5c-5.6,-1.3 -11.4,1.2 -16.9,-1.1c-6.3,-2.5 -8.9,-9.6 -14,-13.6c-10.4,-8.2 -4.7,-25.1 -16,-33.8c-4.2,-3.2 -8.6,-8.2 -13.1,-10.8c-4.8,-2.8 -11.2,-0.4 -16.6,-3.2c-8.7,-4.5 -8.1,-17.9 -13.4,-25.3c-2.6,-3.6 -21.5,-22.7 -26.2,-11.3c-3.5,8.5 6.5,19.3 7.6,27.5c-3.6,-3.6 -4.6,-8.5 -7.4,-12.6c-4.6,-6.7 -13.3,-7.7 -18.9,-13.1c-9.3,-9 -9.8,-23.4 -18.6,-32.8c-2.7,3.5 -3.4,7.4 -2,11.5c-1.5,-2.7 -10.3,-21.4 -7.5,-6.6c-5.9,-7.1 3.5,-15.9 -5.6,-21.9c-8.2,-5.5 -14.5,-15.1 -22.6,-21.2c-9.3,-7.1 -16.6,-18.5 -27.5,-23.3c-3.9,-1.7 -8.1,-2.6 -11.9,-4.4c-6.6,-3.1 -5.5,-8.1 -9.7,-12.7c-5.5,-6.1 -15.7,-6.5 -21.3,-12.1c-7.1,-7 3,-19.3 -4.6,-25.6c-9.1,-7.7 -10.9,-7.7 -14.7,-19.8c-3.1,-10.3 -19.8,-23.9 -27.6,-31.1c-4.9,2.8 -11.4,7 -17.3,5.4c-5.6,-1.6 -7,-6.8 -13.4,-6.9c-10.8,-0.3 -20.5,5.3 -31.5,4.2c-13,-1.3 -21.4,-5.5 -29.5,-15.3c-6,-7.3 -23.2,-17.5 -33.2,-10.7c-36.9,25 47.1,95 60.2,113.4c5,7 12.1,7.3 20,8.7c13.1,2.4 16.9,17.1 22.6,26.8c4.4,7.4 13.1,26.1 21,29.5c13.7,5.9 7.9,19.3 11.3,31.7c3.2,11.6 15.3,8.7 24.1,14.9c5.6,3.9 11,8.2 16.5,12.2c6.8,5 13.9,10.1 19.8,16.2c8.4,8.6 0.4,9.5 3,19.1c3.1,11.5 8.1,22.5 11.2,34.1c3.3,12.3 12.2,25.1 11.4,38c0,0.3 0,0.5 0,0.7l220.4,0c8.9,-8.5 11,-20.4 -8.1,-24.7z" id="svg_3"/>
   <path class="st0" d="m2141.8,1739.4c-9.7,-10.9 -16.9,-10 -28.1,-2c-1.1,0.8 -2.4,1.7 -3.9,2.7l32.6,0c-0.2,-0.3 -0.4,-0.5 -0.6,-0.7z" id="svg_4"/>
   <path id="path2208" class="st0" d="m1798.8,1722.6c11.4,12.1 15.2,-21.7 10.1,-28.5c-6,-8.1 -15.5,-23.3 -24.9,-27.4c-7,-3 -10.9,6.8 -18.2,2.3c1.2,10.2 10.3,17.7 14.7,26.5c2.7,5.4 9,7.3 12.2,12.4c2.9,4.5 3.5,10 6.1,14.7"/>
   <path id="path2210" class="st0" d="m1777.4,1628.6c0.1,-5.5 -3.6,-14.5 -10.6,-9.3c3.9,2.5 7.5,5.6 10.6,9.3"/>
   <path id="path2216" class="st0" d="m1849.4,1656.4c0.8,-4.3 -1,-4.3 -5.5,0c1.8,0 3.6,0 5.5,0"/>
   <path id="path2228" class="st0" d="m2034.6,1635.7c-2,-10.8 -16.9,-14.1 -21.2,-2.5c-2.2,6.5 2,15.8 9.2,17.2c8.6,1.8 8.9,-9.7 12,-14.7"/>
   <path id="path2232" class="st0" d="m2075.1,1664.1c-8.2,-3.4 -17.5,-3 -25.2,-7.7c-1.5,8 5.3,11.6 12,12.9c6.6,1.2 10.1,7.2 14.9,11.2c0,-5.5 0.5,-11.1 -1.7,-16.4"/>
   <path id="path2234" class="st0" d="m2076.3,1684.3c-3.4,-5.7 -8.3,-12.1 -15.3,-13.1c-1.8,10 -0.7,27.8 12.1,30c2,-5.5 0.9,-11.4 3.2,-16.9"/>
   <path id="path2236" class="st0" d="m2109.7,1711.6c-3.8,-7.2 -11.2,-12.1 -18.8,-14.3c-4.3,-1.2 -8.2,-7.3 -10.9,-7.9c-3.2,-0.6 -6,17.5 -2.1,20.1c9,6 21.9,-0.2 30.8,7.5c0.3,-1.7 0.7,-3.5 1,-5.4"/>
   <path id="path2238" class="st0" d="m2116.3,1707.2c-2.4,-9.4 -32.2,-27.5 -28,-10.9c11.4,-5.1 16.4,14.6 28,10.9"/>
   <path id="path2240" class="st0" d="m2124,1724.8c-0.8,-3.9 -3.2,-6.1 -7.1,-6.6c-2.7,4.1 -2.2,7.7 1.6,10.9c2,-1.2 3.9,-2.7 5.5,-4.3"/>
   <path id="path2242" class="st0" d="m2131.5,1695.8c-1.6,-2.2 -3.6,-3.8 -6,-4.9c-0.7,4.6 1.6,6.4 6,4.9"/>
   <path id="path2244" class="st0" d="m2136,1714.9c-1.4,-4.3 -4.7,-7.2 -9.3,-5.5c0.2,4.6 2.9,8.5 6.6,10.9c0.9,-1.7 1.8,-3.6 2.7,-5.4"/>
   <path id="path2252" class="st0" d="m2161.1,1702.3c1.5,-5.7 -0.5,-6.8 -6,-3.3c2,1.1 4,2.2 6,3.3"/>
   <path id="path2256" class="st0" d="m2173,1688.7c-4,-9.1 -11.5,1.2 -11.4,6.7c0,6.4 12.2,-0.5 11.4,-6.7"/>
   <path id="path2258" class="st0" d="m2174.8,1711.1c3,-5.4 1.5,-7.3 -4.4,-5.5c1.4,1.9 2.9,3.7 4.4,5.5"/>
   <path id="path2262" class="st0" d="m2203.1,1695.8c-7.9,-19.1 -29.7,-1.2 -20.5,2.2c6.1,2.3 8.8,-3.6 10.8,6.5c1.9,10.1 9.9,-4.5 9.7,-8.7"/>
   <path id="path2264" class="st0" d="m2180.8,1717.1c-0.1,-2.1 -0.6,-4.1 -1.6,-6c0.5,2 1,4 1.6,6"/>
   <path id="path2272" class="st0" d="m2200.4,1712.7c-1.9,-0.1 -3.7,0.3 -5.5,1.1c1.9,-0.3 3.7,-0.7 5.5,-1.1"/>
   <path id="path2294" class="st0" d="m2399.7,1510.5c4.7,0.8 8.9,3.5 11.8,7.1c-4.3,-2.8 -7.4,-0.5 -7.8,4.4c13.5,2 17.9,-11.7 12.9,-22c-8.8,-18.2 -20.9,-3.7 -16.9,10.5"/>
   <g id="bd">
    <path id="path3240_1_" class="st0" d="m1382.4,229c-1.6,-0.2 -3.3,-0.4 -4.9,-0.5c2.7,2.2 5.8,3.7 9.4,4.4c-1.5,-1.4 -3,-2.6 -4.5,-3.9"/>
    <path id="path3242_1_" class="st0" d="m1379.8,265.1c-0.3,3.4 0.9,6.1 3.4,8.2c-0.2,-4.2 8.2,-7.7 8.2,-7.1c0,-7.4 -7.6,-4.8 -11.6,-1.1"/>
    <path id="path3244_1_" class="st0" d="m1387.3,255.2c1.4,1.1 2.7,2.2 4.1,3.3c-1,-1.6 -2.4,-2.7 -4.1,-3.3"/>
    <path id="path3246_1_" class="st0" d="m1385.1,276c1.5,5.8 6.5,9.4 7.5,15.5c0.5,4.1 0,8.3 -1.4,12.5c-0.9,3.2 -8.4,19.7 1.2,8.1c-1.9,2.1 -2.3,4.1 -1.2,6c8.3,3.8 13.1,-24.4 12.6,-27.9c-1,-7 -11.8,-13.2 -11.2,-19.5c0.7,-6 -8,-0.8 -7.5,5.3"/>
    <path id="path3248_1_" class="st0" d="m1381.9,315.3c1.2,2.2 4.4,-3 1.2,3.8c2.9,-3 3.9,-6.2 3,-9.8c-1.5,2 -2.8,4 -4.2,6"/>
    <path id="path3250_1_" class="st0" d="m1390.2,291.3c-0.6,2.5 -0.6,4.8 0.2,7.1c0.8,-2.5 0.8,-4.9 -0.2,-7.1"/>
    <path id="path3252_1_" class="st0" d="m1412.4,313.1c14,-6.6 7.2,-19.9 2.8,-28.4c1.1,9.2 -0.4,19.1 -2.8,28.4"/>
    <path id="path3254_1_" class="st0" d="m1441,295.7c6.4,-5.5 -1.4,-13.8 -4.9,-16.9c-2.7,6.6 0,13 4.9,16.9"/>
    <path id="path3256_1_" class="st0" d="m1461.7,324.1c-1.9,3.7 -2.6,7.6 -2.1,11.5c1.5,-3.8 2.2,-7.7 2.1,-11.5"/>
    <path id="path3258_1_" class="st0" d="m1462.1,353c9.8,-3.4 4.5,-14.7 -1.6,-16.9c0.5,5.7 0.4,11.5 1.6,16.9"/>
    <path class="st0" d="m1393.4,218.9c-0.1,0.1 -0.1,0.3 -0.2,0.4c1,0 0.6,0 0.2,-0.4z" id="svg_5"/>
    <path class="st0" d="m1326.8,318.2c1,-2.9 1.3,-5.9 1.4,-8.8c-0.5,2.9 -1,5.9 -1.4,8.8z" id="svg_6"/>
    <path class="st0" d="m1492.8,253.8c-2.3,-14.4 -3,-30.5 -7,-44.4c-3.4,-11.7 -13.6,4.8 -20.3,-1.7c1.5,8.8 -0.7,10.3 -5.3,18c-4.7,7.9 1.5,18.3 -3.2,24.5c-12.6,16.6 -18.2,-11.7 -23.4,-14.1c0.2,3.7 -0.5,7.3 -2,10.9c-3.2,-10.3 -12.4,-27.1 -10,-38.5c1.7,-8.1 12.6,-20.7 11.3,-28.2c5.7,0.8 15.8,2.5 16.1,-6.6c2.9,5.8 9.6,-3 14.3,1.6c3.7,-13.8 26.9,-29.1 20.3,-45.9c30.1,2.8 -1.9,-18.3 -14.4,-19.5c-26.9,-2.5 -55,-0.2 -82.1,-0.2c-12.9,0 -26.9,-3.4 -38.5,-7.4c-7.7,-2.7 -4.9,-8.8 -4.3,-15.6c0.2,-1.8 0.3,-4.3 0.4,-7.2l-82.6,0c2,2.9 4,5.8 7,7.9c4.9,3.5 15.9,-2.6 15.7,4.8c-0.3,10.8 15.6,6.7 6.7,18c-5.4,-3 -18.7,-1.8 -25.2,-0.5c-2.6,0.5 -10.7,31 -17.9,14.8c-1.3,6.5 -8.2,11.3 -8.7,18c-0.4,6.4 7.1,11.1 11.5,14.2c7.4,5.4 24.8,6.3 27.2,14.7c1.5,5.2 2.8,11.6 1.2,17.3c-1.5,5.6 -8.8,7.8 -9.9,13.9c-2.3,11.9 14.9,12.5 12.7,21.5c-1,4.1 -5.6,11 0.3,12.5c2.8,0.7 8.9,0.4 8.7,4.6c-0.3,7.4 -3.1,11.1 -1.5,18.8c1.1,5.7 1.5,11.6 2.1,17.5c1.1,12.2 7,21.9 6.8,34.6c-0.2,11.4 10.1,19.5 8.1,29.9c4.7,-4 9.9,-15.9 8.4,-21.3c3.4,5.1 -0.4,11.5 2.1,16.9c12.7,-11.1 3.8,-27.4 5.1,-38.2c0,6.7 2.1,13 4.2,19.1c0.1,-0.1 0.1,-0.3 0.1,-0.4c0.4,-2.9 0.9,-6 1.4,-8.8c0.2,-4.2 0.2,-8.4 2.5,-12.7c-0.2,1.8 -1.4,6.9 -2.5,12.7c-0.1,2.9 -0.3,5.9 -1.4,8.8c-1,8.3 -0.8,15.7 3.4,15.7c0.3,-3.5 1,-6.9 1.9,-10.4c2.2,3.9 8.2,7.4 11.4,1c3.6,-7.2 -3.8,-7.5 0.1,-13.4c5.4,-8.2 -3.8,-19.3 9.1,-24.2c-6,11.1 -5.8,20.6 -3.7,31.7c2.9,-3.4 5.8,-6.9 8.6,-10.4c-2.2,3.2 -3.8,6.7 -4.7,10.4c5,-3.8 10.2,-7.5 14,-12.5c-2.3,8.6 -14,12.1 -12.5,21.9c2,-1.6 3.9,-3.2 5.7,-4.9c-6.3,8.3 5.6,12.5 9,2.2c2.9,-8.7 6.5,-16.1 6.4,-25.1c1.6,3.4 1.7,7 0.2,10.9c14.6,-2.7 15.6,-22.5 7.9,-30.1c-1.8,1.7 -3.5,3.6 -5.2,5.5c1.4,-7.2 6.1,-17.3 -4.4,-17.5c5.7,-6.1 9.7,-12.3 4.9,-19.1c4.5,-1.9 10.6,-5.5 8.3,-10.7c-3.3,-7.7 -13.7,-11.2 -20.5,-15.5c2.7,0.7 10.5,3.5 14.9,4.1c8.9,1.2 0.8,-11.1 -1.4,-12.8c3,1.4 6,1.1 9.1,-1.1c-0.7,2 -1.4,4 -1.9,6c3.1,-0.3 4.8,-0.4 5.6,-0.4c0.1,-0.1 0.1,-0.3 0.2,-0.4c-0.4,-0.4 -0.8,-1.1 -0.3,-2.5c0.6,0.9 0.6,1.8 0.3,2.5c0.4,0.4 0.8,0.4 -0.2,0.4c-1.4,2.3 -5.6,4.1 -5,7.5c1.2,5.9 4.1,7.8 3,14.7c-1.2,4.1 -0.9,8 0.8,11.6c1.9,3.1 10.5,31.5 19,27c1.3,-1.8 1.5,-3.7 0.5,-5.7c1.8,4.2 6,6.5 11.1,4.9c-0.4,-2.2 0.3,-4.2 2.2,-5.9c4.7,-4.7 13.1,-7.3 14.6,-14.3c-3.7,16.9 14.3,29.2 17.4,44.3c0.5,-4.4 3.4,-9.8 7.4,-12.6c-16.3,18.2 5.8,37 5.8,54.7c0,9.5 -0.4,15.3 1.2,25.1c1.6,9.2 9.7,19.2 13.9,27.4c0.8,-6.5 -10.4,-39.7 1.4,-41.6c7.8,-1.2 14.2,10.2 21,8.2c-4.9,-17.3 -3.3,-37.4 -5.4,-55.6c-2,-19 -6.2,-36.8 -9.1,-55.3z" id="svg_7"/>
   </g>
   <g id="th">
    <path id="path3902_1_" class="st0" d="m1834.6,1225.8c-3.3,9.2 -2.2,19.1 0.7,27.9c8.6,-6.6 8.5,-22.8 -0.7,-27.9"/>
    <path id="path3904_1_" class="st0" d="m1848,1230.7c1.4,3.8 3.3,7.5 4.4,11.5c0.5,-4.7 -0.9,-8.5 -4.4,-11.5"/>
    <path id="path3906_1_" class="st0" d="m1881,1273.3c-0.4,-4.4 -2,-8.2 -4.9,-11.5c0.2,4.5 1.9,8.4 4.9,11.5"/>
    <path id="path3908_1_" class="st0" d="m1913.6,1323.1c-4.1,3.9 -4.8,9.6 1.7,10.9c-0.6,-3.6 -1.1,-7.3 -1.7,-10.9"/>
    <path id="path3910_1_" class="st0" d="m1932.4,1134.5c-4,3.4 -4,6.7 0,9.8c3.9,-3.3 3.9,-6.6 0,-9.8"/>
    <path id="path3912_1_" class="st0" d="m1932,1120.3c-1.9,3.9 1.2,5.5 4.7,5.5c-1.4,-2 -3,-3.8 -4.7,-5.5"/>
    <path class="st0" d="m2053.9,567.4c-7.2,0.1 -9.7,15.2 -18.5,9.7c-2.8,16.9 -25.2,26.5 -35.1,39.4c-19.4,-7.2 -12.2,-17 -3.4,-34.1c3.6,-7 3.9,-13.5 3.7,-20.9c-0.1,-4.4 -6.2,-6.5 -5.9,-9.9c0.5,-7.1 8.7,-11.5 8.7,-20c0.1,-6.4 5,-12.3 4.9,-18.4c-0.2,-7.1 -9.4,-18.1 -5.1,-25.8c4.6,-8 -1.1,-8 -6.9,-9.8c-9.6,-2.9 -24.5,11.2 -32.2,4.2c-5.5,-5 -10.5,-11.7 -7,-20.1c2.5,-6 11.4,-15 6.9,-21c-1.8,-2.5 -9.3,-14.6 -11.9,-15.3c-5.9,-1.8 -8.6,5.6 -14.1,7c3.1,-20.4 -25,-3.8 -34.6,-3.3c10.9,17 -13.3,12 -20.1,13.7c-9.4,2.3 -3.9,13.3 -8.6,19.2c-4.8,5.9 -6,1.5 -10.6,1.4c-4.5,-0.1 -9.7,5.1 -14.5,6c-10,2.1 -18.6,-1.9 -27.8,-3.6c-3.1,-0.6 -14,15.1 -15.8,19.8c-2.9,7.3 2.1,11.7 0.8,18.5c-0.8,4.4 -4.6,7.3 -6.1,11.5c-2.6,7.5 6.5,23.1 0.1,28.8c-5.3,4.8 -19.6,5 -22.3,-1.5c1.4,8.1 4.8,23 16.6,19.7c-2.1,6.9 3.9,11.8 5.1,17.8c1.3,6.7 -1.3,12.6 2.3,18.8c6.6,11.2 17.8,22.2 26,32.5c5.3,6.7 17.3,15.2 18.8,23.8c2.4,13.5 3.6,26.8 11.6,38.2c3.5,-3.4 6.1,-7.2 8,-11.5c4.5,4 3.1,14.6 -0.6,19.5c-5.8,7.7 -15.8,0.7 -15.3,14.3c0.3,8.3 3.3,26.2 -0.2,33.9c-2.5,5.4 -11.5,3.8 -10.4,11.5c-8.4,-8.3 -11.9,6.3 -11.7,12.6c0.2,11.3 5.7,19.9 11.4,28.6c12.9,19.9 34.6,34 42.1,57.3c4.6,14.3 4.1,25.2 -0.2,40.1c-1.6,6.2 4.5,22 7.4,27.7c4.9,9.8 8.9,13.8 10.7,25.4c1.2,7.6 4,24.5 8.5,30.7c10.6,14.6 -27.4,50.1 -34.2,63.4c-5.4,10.5 -10.1,11.2 -10.9,23c-0.7,10 -9.8,23.6 -12.5,33.8c-7,26.3 -13.9,53.3 -19.5,79.9c-2.7,13.2 -7.8,40.5 10.4,44.3c2.6,-5.2 -0.1,-11.9 7.3,-13.7c6.9,-1.7 9,5.6 11,10.4c1.2,2.9 0,9.9 4.3,10.7c6.8,1.3 6.2,0.8 10.5,7.3c2.8,4.3 1.7,6.2 2.1,11.4c0.4,5.7 7.8,1.2 11.3,4.6c5.2,5.2 3.9,14.7 7.3,21c2.6,4.8 9.3,6.5 9,-1.4c6.2,3.9 0,24.2 13.4,16.4c-16.3,16.4 21.7,31 21.8,46.5c4.2,-5.3 2,-25.5 10.4,-13.8c6,8.4 11.8,8.8 21.7,10.1c10.8,1.5 6.8,13.6 15.2,15.6c5.9,1.5 14.9,8.9 9.2,17.1c-5.2,7.5 -9.3,21 4.4,21c7.1,0 14.3,-19.5 25.2,-15.1c4.1,1.7 4.8,10.7 10.4,9.5c7.3,-1.5 11.7,-13.3 14.2,-19.1c5.4,-12.6 -0.5,-16.4 -9.7,-24.4c-8.6,-7.5 -9.9,-20.5 -18.9,-27.6c-8.1,-6.5 -19.1,-2.7 -28.7,-2.9c-13.1,-0.4 -14.2,-8.2 -21.8,-15.6c-3.3,-3.2 -8.5,-2 -11.8,-5.2c-4,-3.8 -7.7,-7.5 -10.8,-12.2c-2.6,-4 -12.3,-19.6 -5,-24.5c10.2,-6.9 10,32.9 19,34.6c0.5,-13.1 -4.9,-26.1 -8.3,-38.4c-3.7,-13.8 -3.9,-28.6 -9,-41.9c-10.3,15.2 -17.2,-31.7 -17.6,-38.3c-1.2,-19.8 -10.2,-19.7 -25.3,-11.9c-4.3,2.2 -18.6,0.4 -14.3,-7.5c3.8,-7 -0.4,-11.6 -3,-18.4c-5.6,-14.5 6.1,-36.6 -3.3,-48.5c8.7,1.3 5.2,-11.4 7.7,-15.9c7,-12.9 9.9,-23 14.1,-37c3.5,-11.5 5.8,-26.6 13.5,-36.5c4.1,-5.2 2.6,-11.6 6.3,-16.9c3,-4.3 7.1,-8.2 8.5,-13.3c3.5,-13 -5.1,-25 -1.5,-37.9c3.4,-12.1 8.1,-19.5 2.6,-31.1c-10.6,-23.3 33.8,-10 32.9,-25c1.4,7.5 17,11.9 23.5,7.1c0.6,6.5 -5.1,11.9 -4.9,18.9c0.3,5.1 0,10.2 0.1,15.3c0.2,8.7 -9,23.2 5.5,19.8c7.4,-1.8 15.1,2 22,3.4c5.6,1.1 10.8,-2.9 15.8,-5.1c10.2,-4.4 16.3,16.5 17.2,6.2c1.9,5.3 13.1,21.8 15.2,13.7l0,-378c-2.3,-2.6 -4.5,-4.3 -6.7,-4.3z" id="svg_8"/>
   </g>
   <g id="mm">
    <path id="path4568_1_" class="st0" d="m1514.3,420.8c-0.8,2.8 0.2,4.8 3.1,6c-1.1,-2 -2.1,-4 -3.1,-6"/>
    <path id="path4570_1_" class="st0" d="m1522.5,449.8c2.1,3.6 3.8,7.5 5.1,11.5c-0.8,-6.2 -2.6,-12.3 -6.6,-16.9c0.5,1.7 1,3.6 1.5,5.4"/>
    <path id="path4572_1_" class="st0" d="m1550.5,453.1c-2.6,4.4 2.5,9.3 5.1,11.5c0.5,-4.7 -1.7,-8.8 -5.1,-11.5"/>
    <path id="path4574_1_" class="st0" d="m1562.5,523c-3.1,0.2 -6,1.1 -8.7,2.7c15.5,20.4 18.7,-3.1 8.7,-2.7"/>
    <path id="path4576_1_" class="st0" d="m1581.9,491.3c-2.4,-6.4 -10.4,-6.7 -13.9,-12c-9.2,8.1 4.9,23.1 13.9,12"/>
    <path id="path4578_1_" class="st0" d="m1622.7,696.2c-4.2,4 -19.1,16.7 -11.8,22.4c6.3,-5.9 15.3,-13.3 11.8,-22.4"/>
    <path id="path4580_1_" class="st0" d="m1633.2,717.6c-1.7,2.6 -2.9,1.8 -0.5,5.5c0.1,-1.9 0.3,-3.7 0.5,-5.5"/>
    <path id="path4582_1_" class="st0" d="m1789.5,679.3c-3.1,1.3 -5.4,13.1 -1.6,13.1c7.5,0 8.6,-12.2 1.6,-13.1"/>
    <path id="path4584_1_" class="st0" d="m1815.3,955.8c1.7,-1.7 2.8,-3.7 3.2,-6c-6.4,-1.1 -7.5,1 -3.2,6"/>
    <path id="path4586_1_" class="st0" d="m1819,997.4c0.5,-4.1 -0.5,-7.7 -3,-10.9c1.3,3.5 2.3,7.1 3,10.9"/>
    <path id="path4588_1_" class="st0" d="m1820.1,964c1.1,0 2.2,0 3.3,0c-1.2,-2.2 -2.7,-4.2 -4.5,-6c0.4,2 0.8,4 1.2,6"/>
    <path id="path4590_1_" class="st0" d="m1832.2,911c3.8,-4.4 2.3,-8.9 -2.4,-10.9c0.8,3.6 1.6,7.3 2.4,10.9"/>
    <path id="path4592_1_" class="st0" d="m1832,1059.1c-0.2,-6.4 -2.8,-12.2 -8,-15.8c-1.6,1.6 -2.8,3.4 -3.7,5.5c7.8,-3.7 9.8,5.4 11.7,10.3"/>
    <path id="path4594_1_" class="st0" d="m1825.6,1011c9.3,-0.6 9.8,-17.3 6.2,-22.4c-2.5,7.4 -4.6,14.9 -6.2,22.4"/>
    <path id="path4596_1_" class="st0" d="m1834.4,950.9c2.5,4 17,-20.4 -0.8,-16.9c0.6,5.6 2.4,11.1 0.8,16.9"/>
    <path id="path4598_1_" class="st0" d="m1825.1,1106.7c0.3,1.8 0.5,3.6 0.8,5.5c3.5,-2.2 5.3,-5.3 5.4,-9.3c-2.2,1 -4.2,2.3 -6.2,3.8"/>
    <path id="path4600_1_" class="st0" d="m1840.2,1000.6c1,3.2 3.3,4.8 6.7,4.9c4.2,-17.7 -15.4,-21.1 -6.7,-4.9"/>
    <path id="path4602_1_" class="st0" d="m1841.7,975c1.3,2.5 2.6,5.1 3.8,7.7c2.3,-1.3 4.2,-2.9 5.9,-4.9c-4.3,-1.7 -7.7,-4.5 -10.3,-8.2c0.2,1.7 0.4,3.5 0.6,5.4"/>
    <path id="path4604_1_" class="st0" d="m1843.4,947.6c1.4,-2.9 3.1,-1.8 1.1,-6c-0.4,2 -0.7,4 -1.1,6"/>
    <path class="st0" d="m1701.7,687.5c0.4,0.5 0.8,0.9 1.2,1.2c-0.3,-0.4 -0.7,-0.8 -1.2,-1.2z" id="svg_9"/>
    <path class="st0" d="m1998,333.4c-10.5,6.9 -29.7,26.1 -40.9,18.2c-5.5,-3.8 -11.3,7.6 -14.8,2.4c-2.2,-3.2 -3.1,-10.3 0,-14.1c-18.7,-0.2 -3.3,-16.3 -11.3,-24.6c-7.4,-7.6 -29.8,-1 -39.5,-4.2c-14.2,-4.7 5.8,-20.5 5.9,-28.6c0.2,-7.7 -5.2,-24.6 9.2,-24.1c-3.2,-16.5 -15.9,-7.6 -29,-14.6c-9.6,-5.1 -4.7,-17.5 -11.7,-24.2c-2.6,-2.5 3.4,-7.5 -0.2,-12c-2.8,-3.6 -5.8,-6 -6.7,-10.8c-1.6,-8.5 10.3,-11.9 9.5,-20.4c-15.2,9.8 -30.1,-2.7 -45.5,5.1c-3.5,1.8 -24.9,16.6 -27.9,14c-6.3,-5.5 3.5,-13.3 6.6,-18.8c1.8,-3.1 -1.6,-10.9 -2.5,-13.7c-1.9,-6.4 -8.9,-6.5 -8,-14.8c0.8,-8 2,-15.3 12.5,-16.1c-4.5,-9.7 2.1,-17.2 3.2,-27.3c11.3,11.6 17,-18.4 18.8,-22.4c3.8,0.3 12.7,4.9 12.3,-2.2c0,-0.2 0,-0.4 0.1,-0.6l-201.5,0c-8.1,9.3 -22.2,20.1 -15,28.3c17,19.5 -25.3,64.2 -28.8,89.3c-4.4,-3.8 -22.3,-11.6 -28.8,-10.5s-6.6,3.6 -11.4,0.2c-1.8,-1.7 -4.1,-2.5 -6.8,-2.3c3.8,16.5 5.1,31.6 3.2,49.1c-0.8,7.1 -3.7,24.3 -14,16c-0.1,14.9 -2.9,25.9 1.2,40c1.4,5 4.1,21.9 -6.7,15.2c-1.5,3.7 -0.5,13.4 -5.8,14.9c-7.3,2.2 -8.8,-9.6 -14.2,-11.6c0.4,4.7 -6.8,8.8 -5.7,12.9c0.6,4.2 0.5,8.5 -0.4,12.8c-0.4,10.5 1,20.9 3.8,30.6c-8.2,2.3 -11.6,-9.3 -19.6,-8.4c-6.4,0.7 -7,11.3 -8.1,15.5c3.9,10.9 6.3,24.6 12.2,34.3c4.8,8 14.8,12.9 16.3,23c4.5,-5.4 2,-11.4 1.7,-16.9c2.7,4.9 9.7,10.4 7.9,17.1c-1.6,5.7 -5.6,9.7 1.4,12.9c5.8,-9 6.5,-19.2 11.7,-28.4c-1.7,4.2 -2.3,8.4 -1.7,12.6c0.8,-0.9 1.8,-1.4 2.9,-1.6c-2.3,3.8 -4.5,7.6 -6.5,11.5c2.6,0.1 5.2,-0.1 7.9,-0.5c-7.3,10.6 -4.4,16.2 1,25.1c-2.1,-3.3 -2.3,-6.9 -0.8,-10.9c1.6,3.9 3.3,7.7 5.2,11.5c-1.1,-6.1 -3.7,-11.7 -5.4,-17.5c7,3.1 12.1,-1.5 16.5,5.1c2.4,3.5 8.6,9.4 14,7c-0.2,3.9 -1.3,7.8 -3.2,11.5c4.3,1 8.6,1.5 13.1,1.6c-11,7 5,13.3 8.1,18.2c5.5,8.7 -4.3,12.4 -11.2,10.4c-3.1,-0.9 -7.5,-2 -8.8,-5.1c-1.7,-4.2 -9,-1 -7.3,2c6.4,11.2 12.7,24.9 25.4,30.3c4.2,-6.4 2.1,-16.7 -1.4,-21.9c8.4,6.5 7.7,-5.3 7.5,-10.4c3,6.2 1,17.5 0,24.5c-1.3,9.4 6.4,10.9 12.3,15.4c-9.6,1.8 -1.1,5.8 1.6,12.6c1.8,4.5 3.2,9.5 6.3,13.3c7.2,9 3.8,25.5 7.6,36.5c3,8.5 9.6,30.1 0.5,37.8c-3.6,3 -3.6,20.1 -5.9,25.9c-2.2,5.8 -17.9,57.7 -4.9,52.8c9,-3.4 23.7,-23.8 20.4,-33c1.1,0.1 2.2,0.1 3.3,0c-2.9,12.7 -0.6,26.6 -10.2,37.7c7.8,-0.8 9.9,-8.8 13.7,-14.2c-2.4,6.1 -4,13.1 -11.1,15.8c1.4,2.2 3.2,4.1 5.5,5.5c4.8,-7.3 8.8,-23.6 17.2,-26.8c-4.7,2.3 -11.9,27 -7.2,31.5c10,9.5 10.8,-28.6 18.4,-23.3c-5.9,4.2 -5.5,19 1,22.4c0.1,-5.2 1.5,-10.1 4.3,-14.8c-5.5,17.2 4.4,-8.8 4.9,-9.3c0.9,5.6 -7.7,24.5 -0.9,27.2c13.4,5.2 23.1,-23.2 21.8,-31.6c5.5,6.1 22.7,-3.3 18,-9.7c-0.4,-0.4 -0.8,-0.8 -1.2,-1.2c0.5,0.4 0.9,0.8 1.2,1.2c7.4,6.2 17,-3.6 14.2,-12.3c-2.2,-6.6 -10.8,-14.6 0.5,-17.3c-7.9,8.4 1.6,21 11,20.2c9.3,-0.7 14.9,-10.5 19.3,-17.5c6.1,-9.7 1.4,-19.1 2.6,-28.4c0.3,-2.7 -0.3,-14.5 0.9,-15.9c1.1,5.5 5.9,8.6 9.5,12.3c4.2,4.2 2.2,12.1 8.1,8.5c-0.8,13.8 4.5,25.7 11.6,36.4c3.9,5.9 15.1,1.7 21.4,0.8c-9.9,3.7 -6.3,17.7 -6.8,24.9c-0.2,3.9 -2.8,8.3 -1.4,12c1.6,4.2 5.4,6.6 6.6,11.2c6.2,23.4 1.3,49.7 8.3,73.2c2,-1.1 3.9,-2.2 5.9,-3.3c1.1,1.8 1.8,3.8 2.1,6c-12.2,-7.1 5,28.8 5.7,33.9c0.8,5.4 -0.1,15 -0.2,20.9c-0.1,6.2 4.9,12 2.1,18.5c6.8,-7.1 5.1,-25 3,-32.8c5.4,8.4 4.7,19.5 8.3,28.6c3.8,9.6 8.9,19.1 12,29.1c3.1,9.4 6.1,20.1 7,30.2c0.5,6.1 -4.1,12.6 2.5,14.9c-8.1,1.8 -5.1,7.7 -0.3,10.4c-2.6,1.8 -5.5,2.8 -8.5,3.3c1.2,4.3 4.8,6.7 9.5,5.5c-10.8,5.8 7,15.3 -6.2,21.3c11.2,-1.1 0.1,3.1 0.8,10.9c4.5,-1.1 8.7,-4 11.6,-7.7c-0.3,2.9 0.2,5.7 1.5,8.2c-9.5,0 -7.8,17.4 -7.1,22.6c1.4,11.1 -0.9,22.4 -7.6,31.9c-3.1,4.4 1.1,6.5 -4.9,10c-5,2.9 -2.7,7 -2,11.7c1.9,11.5 -2.2,26.6 3.8,36.9c6.3,-9.8 7.8,-21.1 13.3,-30.9c3.9,-6.7 -3.1,-13.1 4.3,-18.9c10.7,-8.2 19.6,-22.4 26.8,-34.6c6.8,-11.7 20.5,-29 17.9,-41.8c-1.8,-9 -6.7,-16.4 -8.9,-25.2c-2.2,-8.6 -0.3,-16.4 -6.8,-23.3c-6.9,-7.3 -7,-12.7 -10.2,-22c-3.4,-9.8 1.9,-8.8 1.9,-17.5c0.2,-18.9 -0.2,-38.7 -12.5,-53.4c-13.1,-15.5 -31.1,-29.1 -39.8,-48.1c-3.2,-7.1 -6.7,-17.7 -4.1,-26c1.8,-5.8 6.5,-9.6 11.3,-4.8c-1.2,-7.7 8.8,-7.2 10.2,-13.6c1.7,-8.2 1.4,-21.1 0.6,-29.2c-1.3,-14.3 2.5,-7.1 11.5,-14c6.8,-5.2 10.6,-16.7 4.2,-22.4c-1.9,4.3 -4.6,8.1 -8,11.5c-8,-11.4 -9.2,-24.8 -11.7,-38.3c-1.6,-8.6 -8.4,-7.4 -11.3,-12.8c-3.2,-5.9 -7.5,-11 -11.8,-16.2c-6.9,-8.5 -21.1,-21.4 -23.8,-32.2c-1.6,-6.2 1.1,-12.3 -1.9,-18.3c-2,-4.1 -5,-8.2 -3.5,-13.4c-11.9,3.3 -15.2,-11.6 -16.7,-19.7c3.3,7.9 17.5,6 22.8,-0.6c5.9,-7.3 -3.9,-15.5 -2,-22.6c1.5,-5.4 7.8,-11.2 7.3,-16.6c-0.4,-4 -3,-9.3 -1.2,-13.6c3.7,-8.8 11.7,-14.8 13,-23.7c-0.1,0.7 25.6,4.5 28.2,4.7c5.2,0.5 16,-9.9 19.3,-7.6c3.3,2.4 6.2,3 8.3,-2c1.9,-4.5 2.5,-19.3 9.5,-19.9c5.6,-0.4 8.4,5.8 14.8,3.1c6.5,-2.7 7.7,-10.3 4.7,-14.9c13.9,-0.7 24.6,-13.1 34.3,-2.2c3.5,-8.9 2.5,-21.5 11.9,-27.9c5.4,-3.6 18,0.5 20.1,-7.7c-12.4,6.6 3.8,-21.9 6.2,-25.2c3.1,-4.2 13,-6.3 17.7,-10c10.5,-7.8 3.9,-13.1 4.7,-22.6z" id="svg_10"/>
   </g>
   <g id="vn">
    <path id="path3480_1_" class="st0" d="m2473.2,933.4c0.7,2.6 2.3,4.2 4.9,4.9c-1.6,-1.6 -3.2,-3.2 -4.9,-4.9"/>
   </g>
   <g id="in">
    <path id="path5460_1_" class="st0" d="m1531.8,963.5c-1.7,2.6 -2.8,1.8 -0.4,5.5c0.2,-1.9 0.3,-3.7 0.4,-5.5"/>
    <path id="path5466_1_" class="st0" d="m1562.1,1202.3c0,1.8 0.1,3.6 0.3,5.5c-0.1,-1.9 -0.2,-3.7 -0.3,-5.5"/>
    <path id="path5450_1_" class="st0" d="m1500,1055.3c-1.1,-2.6 -2.3,-5.2 -3.7,-7.7c-5.2,4 -8.6,11.8 -7.8,18c2.2,15.5 16,-0.9 11.5,-10.3"/>
    <path id="path5452_1_" class="st0" d="m1515.2,916.5c-11.6,9 -2.7,36.2 -2.6,47c-13.4,-2.5 -19.6,42.6 -1.5,41c-7.5,-5.6 1,-6.2 1.5,-12.5c0.6,-7.5 -3.3,-14.6 -0.2,-22.2c2.4,-5.8 7.8,-10.7 7.1,-17.3c-1.1,-10.2 3,-3.4 5.7,-12.7c2.7,-9.4 -7.3,-19 -4.5,-26.2c2.8,-7.1 17.6,-21.8 3.9,-24.9c6.2,-4.4 5.9,-11.3 2.3,-16.4c-15.1,10.6 -7.5,29.9 -11.7,44.2"/>
    <path id="path5454_1_" class="st0" d="m1510.5,912.1c-0.9,0 -1.8,0 -2.8,0c0.5,2.1 1.2,4.1 2.3,6c0.2,-2 0.4,-4 0.5,-6"/>
    <path id="path5456_1_" class="st0" d="m1513.7,1156.4c-2.6,1.2 -4,3.2 -4.1,6c6.2,1.8 7.5,-0.2 4.1,-6"/>
    <path id="path5458_1_" class="st0" d="m1523.3,975c1.1,1.9 2.8,3 5.2,3.3c-1.7,-1.2 -3.5,-2.2 -5.2,-3.3"/>
    <path id="path5462_1_" class="st0" d="m1549.5,1237.3c-15.9,5.7 13.7,11.8 0,0"/>
    <path id="path5464_1_" class="st0" d="m1557.7,1224.2c-7.8,0.4 -3.1,9.2 0.1,11.5c-1.5,-3.8 -1.5,-7.6 -0.1,-11.5"/>
    <path id="path5468_1_" class="st0" d="m1567.4,1276.6c-4.6,1.7 -5.9,7 -3.8,10.9c4.5,-2.2 6.8,-6.5 3.8,-10.9"/>
    <path id="path5470_1_" class="st0" d="m1577.1,1291.4c-19.8,-10 -4.9,21.4 -1.3,27.9c6.8,-13.6 1,-16.1 1.3,-27.9"/>
    <path class="st0" d="m361.9,496.1c1.3,0.7 2.5,1.3 3.5,2c-1.3,-1.1 -2.5,-1.7 -3.5,-2z" id="svg_11"/>
    <path class="st0" d="m740.4,1162.4c-0.1,-0.1 -0.1,-0.1 -0.2,-0.2c0.1,0.1 0.1,0.2 0.2,0.2z" id="svg_12"/>
    <path class="st0" d="m1252.3,336.1c0.6,2.8 1,4.5 1.3,5.4c0.1,-1.8 -0.3,-3.6 -1.3,-5.4z" id="svg_13"/>
    <path class="st0" d="m434.9,787.9c0.9,-0.1 2,-0.3 3.1,-0.8c-1.2,0.2 -2.2,0.4 -3.1,0.8z" id="svg_14"/>
    <path class="st0" d="m1637.7,79.7l-293.5,0c-0.2,3.5 -0.6,6.6 -1.1,8.6c-5.9,24.3 36.4,20 52.7,22c12.9,1.6 24.9,-2.1 37.7,0c9.8,1.6 20,-0.3 30,-0.4c11.3,-0.2 25.6,4.5 32.4,12.5c5.9,6.9 -8.9,7.5 -12.3,7.1c6.7,17.1 -16.5,31.6 -20.3,45.9c-4.7,-4.7 -11.4,4.1 -14.3,-1.7c-0.3,9.1 -10.4,7.3 -16.1,6.6c1.8,10.3 -14.5,21.6 -11.3,33c3.1,11.3 6.6,22.5 10,33.7c1.6,-3.6 2.2,-7.2 2,-10.9c7.5,3.5 4.3,12.6 10,17.2c5.8,4.7 14.7,-3.1 14.5,-9.6c-0.3,-6.8 -3.5,-13.5 3.8,-19.2c6.8,-5.3 4.7,-10.3 3.6,-16.8c5.5,5.4 19,-9.6 19.5,0.2c0.6,11.3 3.4,22.5 4.9,33.6c2,14.3 9.6,27 10.4,41.6c0.7,12.1 -0.1,25.1 3.3,36.6c4,-2.7 6.5,-7.1 6.1,-11.5c14.9,5.5 11,19.3 20,-3.3c10.8,6.7 8.1,-10.2 6.7,-15.2c-4.1,-14.1 -1.3,-25.1 -1.2,-40c11.5,9.3 13.8,-12.5 14.4,-19.4c1.4,-16.4 0.1,-30.1 -3.5,-45.6c5.5,-1.1 6.1,2.8 10.5,3.7c3.6,-0.7 7.2,-1.2 10.7,-1.4c6.8,1.8 20.7,6 25.7,10.3c2.7,-19.8 13.8,-39.1 25.2,-56.5c4.7,-7 11.3,-16.8 9.6,-24.9c-1.2,-5.3 -6.1,-6.9 -7.6,-11.5c-2.8,-8.7 9.6,-16.1 17.5,-24.7z" id="svg_15"/>
    <path class="st0" d="m232.1,94.8c7.8,12.9 14.9,25.6 21.3,39.3c3.6,7.7 -9.1,23.5 3.1,26c-13.9,9.5 -24.6,15.7 -32.3,0.3c-4.7,-9.4 -28.3,14 -31.8,15.5c-15.2,6.6 -25.2,-12.1 -40.4,-7.8c-8.3,2.4 -24.8,1.6 -32,-2.1c-0.2,6 3.6,23 -7.7,23c-9.5,0 -24.1,0.2 -24.6,13.1c1.7,3.9 1.1,7.7 -1.7,11.5c12.2,5.7 23.1,-18.3 35.8,-16.9c-7.7,5.4 -37.8,23.7 -14.5,32.3c6.9,2.5 6.3,13.1 11.9,17.4c7,5.4 16,9 23.9,13.2s16.9,8.7 26.4,9.1c7.8,0.4 11.1,-5.9 18.2,-8.2c8.3,-2.7 15.3,-4.3 23.6,-3.8c7.7,0.4 4.4,-8.7 8.8,-12.6c7.2,6.9 -2.5,10.7 -6.7,16.4c-4,5.4 -3.8,12.8 -9.1,17.5c-6,5.4 -34.7,20.7 -39.8,12.6c-1.8,7.5 -13.1,10 -18.7,6.9c-2.9,-1.7 -2.4,-9.4 -6.6,-8.9c-15.4,2.1 -3.9,18.9 0.2,23.8c15.7,18.8 36.8,32.2 49.7,53.6c8.7,14.4 27.3,30 43.8,35.5c16.3,5.4 33.2,-4.7 48,-12.9c8.4,-4.7 16.7,-10.3 25.7,-13.5c7.4,-2.6 6.1,-9.7 10.3,-14.8c11.9,-14.3 6.1,-24.4 -9.1,-29.2c1.7,-4.1 5.2,-6.6 9.6,-5.5c-1.4,-1.8 -2.7,-3.6 -3.9,-5.5c6.6,-2 12.3,-4.2 12.8,-11.6c0.4,-5.5 -5,-6.1 -3.9,-9.7c-0.2,0.8 7.4,-0.6 8.3,-4.4c3.5,7.4 19.2,10.1 27.1,8.2c-5.6,7.2 -12.5,-0.1 -18.1,7.1c-6.5,8.4 2,13.7 10.1,10.4c-24.4,16.1 8.4,24.4 24.2,13.7c-4.4,7 -24.9,10.6 -26.4,16.5c-1,4 -2.5,8.1 -4.2,11.9c-2.6,5.9 9,8.3 1.3,16.4c6.2,-6.2 7.7,-6 4.4,0.5c8.4,-9.3 9.7,15.8 10.3,17.7c4.3,14.7 -5.9,29.7 -10.4,44.1c-2.8,9.2 -3.4,18 -1.6,27c0.7,3.3 8.9,14.2 6.4,16.8c-4.7,5 2.2,8.1 8,11.2c1,0.3 2.2,0.9 3.5,2c1.4,1 2.5,2 2.9,3c-1,-1.3 -2,-2.3 -2.9,-3c-1,-0.7 -2.2,-1.4 -3.5,-2c-6.9,-1.8 -8.7,13.3 -4.7,20.9c3.8,-3.3 5.9,-7.4 6.8,-12c0.9,5.7 4.4,13.3 -3.9,16.4c3.3,3 4.6,6.8 3.8,11.5c-1.7,-1.5 -3.4,-2.9 -5.1,-4.4c-4.6,9.3 4.8,14.4 6.3,22.4c-12.9,-7.3 0.9,12.2 2.7,14.7c-10.7,-4.2 -0.4,17.6 1.2,24.2c2.4,10.1 7.7,19.1 8.6,29.6c0.9,11.2 6.3,21.8 5.4,33.2c-0.9,10.9 1.1,21.8 3.6,32.1c3.6,14.9 8.5,30.1 16.7,42.9c3.4,5.3 8.7,6.8 8.2,11.7c-0.5,4.7 3.1,11.6 7.8,12.8c-9.9,1.1 -2.4,3.3 -0.3,8.1c2.1,4.6 3.3,9.7 4.8,14.5c1.7,5.4 4.6,13.8 11.3,13.2c0.8,-0.3 1.8,-0.6 3.1,-0.8c-1.1,0.5 -2.1,0.7 -3.1,0.8c-8.9,3.4 5,11.4 7.8,15.6c4.9,7.2 1.4,21.2 11.3,24.6c-9,-3.3 -2,9.8 -0.3,14.9c2.3,6.8 4.7,13.2 6.8,20c3.2,10.4 3.8,20.4 5.4,31.5c5.1,31 17.2,60.8 36,85.6c-2,2.6 27,54.5 28.6,59.7c4.4,13.8 8.2,28 13.2,41.6c3,7.6 7,9.8 6,16.9c-0.4,3 3.7,16.5 4,2.6c0.2,7.1 6.1,10.4 8.7,16.4c3,7 0.6,15.2 3.1,22.4c-7.9,-1 -4.9,-26.8 -6.7,-13.7c-0.1,-5.5 -1.1,-11.1 -3.8,-15.9c-3.9,13.2 1,27.4 5.6,39.5c3.3,8.5 6.4,28.6 16.7,25c-11.6,2.9 22.9,40.6 27.4,44.8c9.7,9 17.2,15.1 30.8,9.1c8.7,-3.8 19,-9.4 24.5,-17.5c10.8,-16.1 1.9,-35.9 23.5,-46.3c16.6,-8 41.9,-17.6 56.5,-2.4c-1.9,-2 -7,-11.3 -9.7,-10.2c-4,1.5 -9,2.1 -12.9,0.4c-15.1,-6.5 -3.8,-25.9 1.9,-34.8c2.9,-4.6 12,-10.4 9.1,-16.3c-1.9,-4 1,-8.2 2.9,-11.7c3.7,-6.7 11.6,-3.9 17.1,-2.4c2.6,0.7 17.7,3.1 3,-1.7c3.8,0.8 7.6,1.4 11.4,1.6c1.3,-14.6 -1.1,-29 0,-43.6c0.7,-8.9 1.3,-19.2 -4.4,-26.3c-2.1,1.3 -4,2.7 -5.8,4.4c10.7,-11.3 5.5,-30.8 10.7,-44.3c6.6,-17.4 18.5,-31.4 22.4,-49.8c2.2,-10.3 9.1,-35.1 3.9,-44.7c-2.8,-5.2 -7.5,-5.5 -12,-8.5c-3.6,-2.3 -2.6,-15.3 1.5,-5.3c0.3,-14 7.4,3 8.9,6.6c-4.2,-20.6 -6.9,-37.4 -5.4,-58.5c0.9,-12.3 -3,-25.4 -6.3,-37.5c-4,-14.7 6.8,-34.8 15,-47.9c5.6,-9 33.5,-19.5 27.9,-1c2.4,-5.6 6.7,-11.3 4.8,-17.5c1.8,5.4 1.4,11.3 7.1,14.2c0,-6.5 8.5,-18.7 11,-25.6c2.3,-6.3 3.6,-11.7 11.2,-12c18.6,-0.9 43.6,0.9 53.9,-20.1c5.2,-10.6 -7.2,-13 -2.3,-22.3c3,-5.8 8.6,-11.9 13.7,-16.1c5.2,-4.3 50.5,-24.3 42,-29.6c14,-6 17.3,-24.1 31.6,-30.2c16.7,-7.2 28.1,-21.6 38.1,-36.1c10.2,-14.4 18.1,-28.6 31.8,-40.3c6.1,-5.2 16.6,-19.8 22.4,-21.4c-2.4,-5.9 -12.4,5.8 -14,9.3c-2,-9.3 7.9,-22.5 17.6,-25.6c9.5,-3.1 6.2,10.6 0.1,13.6c18.4,-2.5 36.8,-10.6 54.1,-18.6c-4.9,-2.8 -12,-5.8 -13,-12c10.9,16.6 16.9,0.6 28.6,-7.7c9.8,-7 2.6,-7.5 6.4,-14.9c2.5,-4.8 9,-7.8 13.2,-10.8c-5.6,-5.9 -10,-31.8 -7.4,-39.7c3.8,-11.6 18.4,-16.9 28.9,-19.9c19.9,-5.6 30.3,-12.4 42.6,-29c10.9,-14.7 -8.5,-12.5 -8.9,-24c2.9,11.5 14.7,8.8 14.3,23c-0.3,9.2 -2.4,23.8 4.3,30.6c1.5,-2.2 2.2,-4.4 2.3,-6.6c-0.3,-0.9 -0.7,-2.6 -1.3,-5.4c0.9,1.8 1.3,3.6 1.3,5.4c1.4,4.4 0.3,-9.3 4.6,-2c0.6,1.5 1.4,3 2.3,4.3c3.1,2.2 3.9,-17.4 3.9,-18.1c6.5,5.2 2,16.8 3.5,24c3.3,-10.9 -2.9,-36.4 8.7,-44.3c-3.7,5.6 -0.6,11.1 -2.8,16.9c6.7,-4.8 1.6,-10 7.3,-12.6c-0.9,8.6 -7.1,19.1 -4.2,27.3c2.8,7.9 8.1,2.6 9.9,-3.3c-0.5,4.4 5.1,11.5 10.5,7.5c5,-3.7 -6.2,-18.1 -7.4,-21.7c2.1,1.2 4.2,2.5 6.2,3.8c6,-9.1 2.4,-21.3 -1.5,-30c-3.8,-8.6 -3,-13.9 -2,-23.5c0.8,-7.1 -4.9,-11.6 -4.8,-18.6c0,-3.5 7.2,-11.8 1.4,-13.5c-1,-0.3 -7.1,-1.1 -7.5,-3.3c-0.9,-5.6 4.7,-14.6 -2.7,-15.1c-25,-1.8 17,-51.9 -4.7,-53.5c-10.8,-0.8 -20.7,-5.1 -28.2,-11.9c-10.4,-9.3 0.2,-18.2 2.5,-29.5c4.6,10.3 13,-1.3 14.7,-8c1.6,-6.4 3.3,-6.8 10.5,-7.5c5.3,-0.5 13.3,-1.3 17.9,1.2c8.9,-11.3 -7,-7.2 -6.7,-18c0.2,-7.4 -10.8,-1.3 -15.7,-4.8c-2.9,-2.1 -4.9,-5 -7,-7.9l-1032,0c0.9,4.9 -0.7,11.7 1.7,15.6z" id="svg_16"/>
   </g>
   <g id="cn">
    <path class="st0" d="m1837.7,79.7c-1.1,2.2 -3.5,3.4 -11.7,2.8c-1.8,4 -7.5,34 -18.8,22.4c-1.1,10.1 -7.7,17.7 -3.2,27.3c-8.1,0.6 -12.1,5.9 -12,13.2c0.2,9.8 3.2,8.9 6.7,15.7c2.3,4.4 4.7,12.9 1.7,18.3c-3.1,5.4 -11.1,10.9 -5.1,16.1c3,2.6 24.3,-12.2 27.9,-14c15.4,-7.7 30.3,4.7 45.5,-5.1c0.9,9.1 -13.3,13.1 -9.3,22.3c2.4,5.5 12.3,10.5 5.9,17.9c-1.2,1.4 3.2,7.1 3.6,8c4.8,9.4 1.7,21.3 16.7,21.3c11.4,0 18.8,1.1 21,12.6c-14.8,-0.6 -8.9,21.6 -11.5,29.4c-1.7,5.3 -17.2,27 -1.5,24.9c12.2,-1.6 26.3,-2.4 36.8,3.2c9.6,5 -7.6,23.8 11.9,24c-2.9,3.6 -3,14.5 2,15.6c4.8,1 7.5,-7.7 12.9,-3.9c11.3,7.9 30.4,-11.4 40.9,-18.2c-0.8,10.1 3.6,19 5.9,28.2c2.7,10.7 4,9.9 15,6.8c7.2,-2 11.9,9.5 18.2,4.4c4.7,-3.8 -2.9,-12.7 -2.5,-16.9c0.5,-4 4.5,-7.5 4.6,-11.5c-0.9,-2.4 -2,-4.7 -3.3,-6.9c-1.1,-7 -5.5,-12.7 -8.6,-18.7c-2.8,-5.3 -5.6,-32.9 9,-32.9c3.3,0 1.5,6.2 5.4,5c3,-0.8 5.9,-1.4 8.9,-1.6c3.4,-0.3 6.4,3.3 9.7,2.6l0,-107.4l0,-104.9l-222.7,0z" id="svg_17"/>
   </g>
   <g id="my">
    <path id="path4722_1_" class="st0" d="m1940.1,1341.1c3.2,-4.1 3.1,-11.6 5.3,-16.3c3.9,-8.3 11.1,9.2 15.2,11.6c5.1,3 9.9,1 15.2,2.5c5,1.4 5,7.3 7.5,10.9c4.9,7.2 18.4,5.7 13.8,19.7c-2.2,6.8 -11.9,25.9 5.6,21.8c7.9,-1.8 10.2,-14.7 19.3,-16.2c7.6,-1.2 10,13.5 17.1,10.8c5.7,-2.2 15.3,-26.3 15.4,-32.3c6.9,2.2 13.3,2.9 17.6,9.3c4.3,6.3 5.7,14 11.8,19.1c15.2,12.6 28.5,24.3 36.9,42.5c8.5,18.4 14.4,37.1 12.6,58.2c-0.7,8.1 -2,17.1 -3.9,25.1c-2.6,11.3 -0.6,12.2 2.5,22.3c4.6,15.2 -5.4,33.7 3.2,48.9c6.6,11.8 22.3,18.1 25.7,32.4c3.9,16.9 14.9,31.2 19.3,48.3c5.8,23 -20.3,10.4 -8.4,2.1c-4.6,0.2 -8.5,-2.5 -10.4,-6.6c0.8,1.6 5.2,17 -1.2,12.4s-21.3,5.6 -27.1,8.4c-6.2,-20.1 -30.6,-25.6 -45.2,-37.9c-3.8,-3.2 -6.5,-7 -10,-10.3c-5.5,-5.3 -14.7,-5.2 -20.9,-9.7c-6.2,-4.6 -16.1,-14.4 -19.4,-21c-2.3,-4.6 -6,-5 -10.6,-6.2c-7,-1.9 -9.9,-8.3 -15.5,-12.2c-5.3,-3.8 -4.1,-4.8 -1.1,-8.9c3.4,-4.6 -0.5,-13.9 -2.3,-18.2c-5.5,-13.5 -20.4,-22.8 -25.4,-36.5c-2.4,-6.6 -16.7,-10.2 -0.1,-15.5c-9.7,1.4 -18.8,-18.8 -16,-25.9c5.5,-13.8 -1.3,-28.6 -9.1,-38.9c-6.9,-9 -3.9,-37.4 -3.4,-48.9c0.9,-16.7 -8.6,-30 -14,-44.8"/>
    <path id="path2284_1_" class="st0" d="m2262.8,1576.7c5.5,-3.1 6.1,-10.1 -0.7,-11.5c0.9,3.7 1.1,7.6 0.7,11.5"/>
    <path id="path2300_1_" class="st0" d="m2441.7,1572.8c1.8,1.5 3.9,1.5 6,0c-0.5,-2 -1.3,-3.8 -2.5,-5.5c-1.2,1.9 -2.3,3.7 -3.5,5.5"/>
    <path id="path4700_1_" class="st0" d="m1924.3,1338.9c-2.8,2.9 -6,5.3 -9.6,7.1c5.3,11.3 18.2,0.2 9.6,-7.1"/>
    <path id="path4704_1_" class="st0" d="m1950.5,1405.6c-6.5,-2.9 -7.5,3.4 -7.4,8.2c0.3,10.2 8.3,-1.5 7.4,-8.2"/>
    <path id="path4706_1_" class="st0" d="m2174.8,1575c-2.3,1.3 -3.4,3.3 -3.5,6c6.3,1.2 7.4,-0.8 3.5,-6"/>
   </g>
   <g id="lk">
    <path id="path6496" class="st1" d="m756.2,1165.7c1.5,3.9 7.7,6.3 10.6,8.7c-1,-5.2 -5.1,-9 -10.6,-8.7"/>
    <path id="path6498" class="st1" d="m760.6,1264c-0.8,24.4 4.3,124.1 49.9,109.4c20.7,-6.7 51.7,-20.7 63.4,-40.2c9.6,-16.1 14.7,-44.4 4.3,-60.5c-0.1,2.9 -9.4,-16.6 -11.8,-19.1c13.7,10.1 -2.8,-11.1 -4.8,-14.5c-6.2,-10.7 -5.9,-23.1 -10.9,-34.2c-4.3,3.5 -8.9,2.3 -11.4,-2.2c13.5,1.1 -15.7,-36.9 -17.1,-42.3c-1.5,-5.8 -34.5,-45.5 -41.1,-39.7c7.1,1.7 10.7,8.4 15.4,13.1c-7.3,-4.3 -20.3,-23.2 -29.7,-11.5c3.9,6.2 11.5,6.7 16.6,11.5c1.2,-6.7 18.7,4.1 22.1,9.3c-3.2,-2.5 -21.1,-6.7 -26.1,-6.6c3.5,5.1 0,5.3 -2.8,8.8c-3.8,4.9 3.7,12.9 -1.4,20.8c-12,18.4 -11.2,51 -12.9,72.6c-8.7,-2.6 -4.2,-13.9 -4.2,-20.2c-9.1,13.4 1.6,31.9 2.5,45.5"/>
    <path id="path6500" class="st1" d="m765.4,1126.9c0.8,3.7 0.6,5.2 5.3,4.4c-1.8,-1.5 -3.5,-3 -5.3,-4.4"/>
   </g>
   <path class="st0" d="m2045.8,290.8c-7.7,1.9 -6.6,-0.5 -9.4,-4.6c-2.7,-4 -11.7,15.8 -11.9,17.6c-0.7,8 2.6,13.9 6.4,20c3.4,5.4 8.2,12.1 8.1,19.1s-5.5,12.5 -4.3,20.1c0.1,0.9 8.9,15.4 -2.6,10.8c-8.1,-3.2 -7.7,-7.8 -18.1,-3.8c-17.9,6.8 -6,-18.4 -14.8,-23.7c0.5,7.6 -11.2,13.2 -17.1,15.6c-7.1,2.9 -7.5,6.2 -10.8,12.2c-2,3.6 -14.1,23.7 -1.7,17c-2.1,8.1 -14.7,4 -20.1,7.7c-9.4,6.3 -8.4,19 -11.9,27.9c0.1,1.8 0.2,3.7 0.3,5.5c6.2,-1.6 8.8,-9.8 15.4,-6.6c3.3,1.6 9.4,12 11.6,15.3c5.2,8 -11.4,21 -7.4,31.7c2.8,7.5 6,10.7 14.2,9.1c4.7,-0.9 4.7,3.7 7.8,-1.6c1.8,-2.2 4.1,-3.3 6.9,-3.3c25,-6.5 14.1,14.7 19.5,28.7c3.8,9.9 -0.6,15.9 -2.8,26.2c-1,4.7 1.9,4.9 -1.5,9.5c-2.4,2.2 -4.4,4.7 -6.1,7.4c-1.2,4.7 3.1,13.9 3.2,19.3c0.3,9 -1.4,14.6 -5.9,22.9c-2.8,5.3 -7.9,14.7 -3.5,19.7c3.9,4.5 9.4,7.2 14,2.4c10.1,-10.4 29.6,-20.9 32.1,-35.9c9.4,6 11.8,-11.2 20,-8.5c1.6,0.5 3.4,1.3 5.2,2.1l0,-272c-3.3,-5.3 -5.2,-10.1 -14.8,-7.8z" id="svg_18"/>
   <g id="mv">
    <path id="mv-" class="st2" d="m38.2,1587.2c0.7,-5.3 -1.2,-11.9 -8,-10.4c4,2.1 7.1,5.8 8,10.4"/>
    <path id="mv." class="st3" d="m31.6,1587.4c58.7,0 60.6,-91.3 1.9,-91.3c-58.7,0 -60.6,91.3 -1.9,91.3"/>
   </g>
   <g id="sg">
    <path id="sg-" class="st0" d="m2150,1669.6c-7.3,1.9 3.9,15.8 13.7,2.7c-4.4,-2.1 -8.9,-3 -13.7,-2.7"/>
    <path id="sg." class="st3" d="m2162.6,1721.9c58.6,0 58.4,-91.3 -0.2,-91.3c-58.7,0 -58.5,91.3 0.2,91.3"/>
   </g>
  </g>
  <g id="svg_19">
   <text font-weight="normal" xml:space="preserve" text-anchor="start" font-family="Arvo, sans-serif" font-size="NaN" id="svg_22" y="383.999979" x="1692.857117" stroke-width="null" stroke="#999999" fill="#999999">緬甸</text>
   <text xml:space="preserve" text-anchor="start" font-family="Arvo, sans-serif" font-size="NaN" id="svg_25" y="878.333785" x="1717.00085" stroke-width="null" stroke="#999999" fill="#999999">安達曼海</text>
   <text stroke="#999999" xml:space="preserve" text-anchor="start" font-family="Arvo, sans-serif" font-size="NaN" id="svg_26" y="748.333717" x="1938.667631" stroke-width="null" fill="#999999">泰國</text>
   <text xml:space="preserve" text-anchor="start" font-family="Arvo, sans-serif" font-size="NaN" id="svg_27" y="1569.000807" x="1825.33424" stroke-width="null" stroke="#999999" fill="#999999">印尼</text>
   <text xml:space="preserve" text-anchor="start" font-family="Arvo, sans-serif" font-size="NaN" id="svg_28" y="177.333426" x="1325.333981" stroke-width="null" stroke="#999999" fill="#999999">孟加拉</text>
  </g>
  <g id="trail-path" class="st7">
   <path class="st8" d="m1473.4,286.5c-73,0 -49.9,150.8 -43.9,196.8s78.8,358.3 168.6,464.5c89.8,106.2 99.2,165.5 227.6,160.9c89.5,-3.2 128.1,156.6 128.7,170s89.8,60.7 89.8,60.7" id="svg_20"/>
  </g>
  <g id="camera-path" class="st7">
   <path class="st9" d="m1492.9,326.7c0,0 -105,-10.2 -48.8,247.3c9.7,25 85.3,267.5 180.1,418c85.8,136.2 202.7,83.1 257.5,166.5s134.2,192.8 155.6,197.1" id="svg_21"/>
  </g>
  <g id="points" class="st7">
   <circle id="馬來西亞" class="st10" cx="2044.3" cy="1339.4" r="7"/>
   <circle id="拉廊" class="st10" cx="1846.9" cy="1113.2" r="7"/>
   <circle id="科克斯巴札爾" class="st10" cx="1480.3" cy="286.5" r="7"/>
  </g>
 </g>
</svg>